<svg xmlns="http://www.w3.org/2000/svg" viewBox="0 0 802.79 513.03"><defs><style>.cls-1{fill:#0c0709;stroke-width:0.25px;}.cls-1,.cls-2,.cls-3,.cls-4{stroke:#000;stroke-miterlimit:10;}.cls-2{fill:#a89b8c;}.cls-3{fill:#8f5c38;}.cls-4{fill:#f5d491;}</style></defs><title>Asset 5</title><g id="Layer_2" data-name="Layer 2"><g id="Layer_3" data-name="Layer 3"><path class="cls-1" d="M160.75,44.84c8.47,4.89,14.41,10.1,18,15.68s4.38,11,2.47,16.34-6.3,10-13.38,14.13L143.55,77c5.39-3.14,7.86-6.53,7.44-10.27s-3.72-7.31-9.9-10.88A41.36,41.36,0,0,0,123.48,50c-5.77-.46-10.73.52-14.79,2.88-3.81,2.22-5.13,5.18-3.82,8.92s4.57,8.43,9.86,14.07c9.65,10.38,14.61,19.21,14.85,26.41s-4.29,13.46-13.4,18.75c-10.2,5.93-22,8.32-35.52,7.2s-26.8-5.44-39.86-13Q27.12,107.35,20.94,98c-4.16-6.25-5.34-12.14-3.53-17.75s6.55-10.62,14.12-15L56,79.37q-19.46,11.3,4,24.77A41.65,41.65,0,0,0,77,109.92,23.87,23.87,0,0,0,91.56,107c4.61-2.67,6.48-5.61,5.72-8.92S93.16,90,87.46,83.51s-9.7-11.85-12-16.23Q66.1,49.41,84.38,38.77A53.58,53.58,0,0,1,106.79,32a82.91,82.91,0,0,1,27.08,2.16A98.86,98.86,0,0,1,160.75,44.84Z"/><polygon class="cls-1" points="337.75 148.93 318.19 160.29 282.02 139.41 184.3 196.2 159.98 182.16 257.7 125.37 222.03 104.77 241.58 93.4 337.75 148.93"/><polygon class="cls-1" points="460.53 219.81 440.97 231.18 386.31 199.62 358.34 215.87 405.03 242.83 386.12 253.82 339.43 226.86 307.99 245.13 362.81 276.78 343.4 288.05 264.27 242.37 381.55 174.22 460.53 219.81"/><polygon class="cls-1" points="529.19 259.46 431.32 316.33 482.99 346.17 463.59 357.44 387.6 313.57 504.87 245.42 529.19 259.46"/><polygon class="cls-1" points="649.03 328.64 551.16 385.52 602.83 415.35 583.42 426.63 507.44 382.76 624.71 314.61 649.03 328.64"/><path class="cls-1" d="M802.6,417.31,729.52,511l-25.86-14.93,16-18.76-42.71-24.65L644.71,462l-25.91-15,161.28-42.75Zm-99.52,27.76,29.54,17.06L761.69,428l-58.61,17"/><path class="cls-1" d="M160,44.84c8.47,4.89,14.41,10.1,18,15.68s4.38,11,2.47,16.34-6.3,10-13.38,14.13L142.75,77c5.39-3.14,7.86-6.53,7.44-10.27s-3.72-7.31-9.9-10.88A41.36,41.36,0,0,0,122.68,50c-5.77-.46-10.73.52-14.79,2.88-3.81,2.22-5.13,5.18-3.82,8.92s4.57,8.43,9.86,14.07c9.65,10.38,14.61,19.21,14.85,26.41s-4.29,13.46-13.4,18.75c-10.2,5.93-22,8.32-35.52,7.2s-26.8-5.44-39.86-13Q26.32,107.35,20.14,98C16,91.79,14.8,85.9,16.61,80.29s6.55-10.62,14.12-15l24.42,14.1q-19.45,11.3,4,24.77a41.65,41.65,0,0,0,17.07,5.78A23.87,23.87,0,0,0,90.76,107c4.61-2.67,6.48-5.61,5.72-8.92S92.36,90,86.66,83.51s-9.7-11.85-12-16.23q-9.34-17.87,8.93-28.51A53.58,53.58,0,0,1,106,32a82.91,82.91,0,0,1,27.08,2.16A98.86,98.86,0,0,1,160,44.84Z"/><polygon class="cls-1" points="336.95 148.93 317.39 160.29 281.22 139.41 183.5 196.2 159.18 182.16 256.9 125.37 221.23 104.77 240.78 93.4 336.95 148.93"/><polygon class="cls-1" points="459.73 219.81 440.17 231.18 385.51 199.62 357.54 215.87 404.23 242.83 385.32 253.82 338.63 226.86 307.19 245.13 362.01 276.78 342.6 288.05 263.47 242.37 380.75 174.22 459.73 219.81"/><polygon class="cls-1" points="528.39 259.46 430.52 316.33 482.19 346.17 462.79 357.44 386.8 313.57 504.07 245.42 528.39 259.46"/><polygon class="cls-1" points="648.23 328.64 550.36 385.52 602.03 415.35 582.62 426.63 506.63 382.76 623.91 314.61 648.23 328.64"/><path class="cls-1" d="M801.8,417.31,728.72,511l-25.86-14.93,16-18.76-42.71-24.65L643.91,462l-25.91-15,161.28-42.75Zm-99.52,27.76,29.54,17.06L760.89,428l-58.61,17"/><path class="cls-1" d="M159.15,44.84c8.47,4.89,14.41,10.1,18,15.68s4.38,11,2.47,16.34-6.3,10-13.38,14.13L142,77c5.39-3.14,7.86-6.53,7.44-10.27s-3.72-7.31-9.9-10.88A41.36,41.36,0,0,0,121.88,50c-5.77-.46-10.73.52-14.79,2.88-3.81,2.22-5.13,5.18-3.82,8.92s4.57,8.43,9.86,14.07c9.65,10.38,14.61,19.21,14.85,26.41s-4.29,13.46-13.4,18.75c-10.2,5.93-22,8.32-35.52,7.2s-26.8-5.44-39.86-13Q25.52,107.35,19.34,98C15.18,91.79,14,85.9,15.81,80.29s6.55-10.62,14.12-15l24.42,14.1q-19.45,11.3,4,24.77a41.65,41.65,0,0,0,17.07,5.78A23.87,23.87,0,0,0,90,107c4.61-2.67,6.48-5.61,5.72-8.92S91.56,90,85.86,83.51s-9.7-11.85-12-16.23q-9.34-17.87,8.93-28.51A53.58,53.58,0,0,1,105.19,32a82.91,82.91,0,0,1,27.08,2.16A98.86,98.86,0,0,1,159.15,44.84Z"/><polygon class="cls-1" points="336.15 148.93 316.6 160.29 280.42 139.41 182.7 196.2 158.38 182.16 256.1 125.37 220.43 104.77 239.98 93.4 336.15 148.93"/><polygon class="cls-1" points="458.93 219.81 439.37 231.18 384.71 199.62 356.74 215.87 403.43 242.83 384.52 253.82 337.83 226.86 306.39 245.13 361.21 276.78 341.8 288.05 262.67 242.37 379.95 174.22 458.93 219.81"/><polygon class="cls-1" points="527.59 259.46 429.72 316.33 481.39 346.17 461.99 357.44 386 313.57 503.27 245.42 527.59 259.46"/><polygon class="cls-1" points="647.43 328.64 549.56 385.52 601.23 415.35 581.82 426.63 505.83 382.76 623.11 314.61 647.43 328.64"/><path class="cls-1" d="M801,417.31,727.92,511l-25.86-14.93,16-18.76-42.71-24.65L643.11,462l-25.91-15,161.28-42.75Zm-99.52,27.76L731,462.13,760.09,428l-58.61,17"/><path class="cls-1" d="M158.35,44.84c8.47,4.89,14.41,10.1,18,15.68s4.38,11,2.47,16.34-6.3,10-13.38,14.13L141.15,77c5.39-3.14,7.86-6.53,7.44-10.27s-3.72-7.31-9.9-10.88A41.36,41.36,0,0,0,121.08,50c-5.77-.46-10.73.52-14.79,2.88-3.81,2.22-5.13,5.18-3.82,8.92s4.57,8.43,9.86,14.07c9.65,10.38,14.61,19.21,14.85,26.41s-4.29,13.46-13.4,18.75c-10.2,5.93-22,8.32-35.52,7.2s-26.8-5.44-39.86-13Q24.72,107.35,18.54,98C14.38,91.79,13.2,85.9,15,80.29s6.55-10.62,14.12-15l24.42,14.1q-19.45,11.3,4,24.77a41.65,41.65,0,0,0,17.07,5.78A23.87,23.87,0,0,0,89.16,107c4.61-2.67,6.48-5.61,5.72-8.92S90.76,90,85.06,83.51s-9.7-11.85-12-16.23Q63.7,49.41,82,38.77A53.58,53.58,0,0,1,104.39,32a82.91,82.91,0,0,1,27.08,2.16A98.86,98.86,0,0,1,158.35,44.84Z"/><polygon class="cls-1" points="335.35 148.93 315.8 160.29 279.62 139.41 181.9 196.2 157.58 182.16 255.3 125.37 219.63 104.77 239.18 93.4 335.35 148.93"/><polygon class="cls-1" points="458.13 219.81 438.57 231.18 383.91 199.62 355.94 215.87 402.63 242.83 383.72 253.82 337.03 226.86 305.59 245.13 360.41 276.78 341 288.05 261.87 242.37 379.15 174.22 458.13 219.81"/><polygon class="cls-1" points="526.79 259.46 428.92 316.33 480.59 346.17 461.19 357.44 385.2 313.57 502.47 245.42 526.79 259.46"/><polygon class="cls-1" points="646.63 328.64 548.76 385.52 600.43 415.35 581.02 426.63 505.04 382.76 622.31 314.61 646.63 328.64"/><path class="cls-1" d="M800.2,417.31,727.12,511l-25.86-14.93,16-18.76-42.71-24.65L642.31,462l-25.91-15,161.28-42.75Zm-99.52,27.76,29.54,17.06L759.29,428l-58.61,17"/><path class="cls-1" d="M157.55,44.84c8.47,4.89,14.41,10.1,18,15.68s4.38,11,2.47,16.34-6.3,10-13.38,14.13L140.35,77c5.39-3.14,7.86-6.53,7.44-10.27s-3.72-7.31-9.9-10.88A41.36,41.36,0,0,0,120.28,50c-5.77-.46-10.73.52-14.79,2.88-3.81,2.22-5.13,5.18-3.82,8.92s4.57,8.43,9.86,14.07c9.65,10.38,14.61,19.21,14.85,26.41S122.09,115.73,113,121c-10.2,5.93-22,8.32-35.52,7.2s-26.8-5.44-39.86-13Q23.92,107.35,17.74,98c-4.16-6.25-5.34-12.14-3.53-17.75s6.55-10.62,14.12-15l24.42,14.1q-19.45,11.3,4,24.77a41.65,41.65,0,0,0,17.07,5.78A23.87,23.87,0,0,0,88.36,107c4.61-2.67,6.48-5.61,5.72-8.92S90,90,84.26,83.51s-9.7-11.85-12-16.23Q62.9,49.41,81.18,38.77A53.58,53.58,0,0,1,103.59,32a82.91,82.91,0,0,1,27.08,2.16A98.86,98.86,0,0,1,157.55,44.84Z"/><polygon class="cls-1" points="334.55 148.93 315 160.29 278.82 139.41 181.1 196.2 156.78 182.16 254.5 125.37 218.83 104.77 238.38 93.4 334.55 148.93"/><polygon class="cls-1" points="457.33 219.81 437.77 231.18 383.11 199.62 355.14 215.87 401.83 242.83 382.92 253.82 336.23 226.86 304.79 245.13 359.61 276.78 340.2 288.05 261.07 242.37 378.35 174.22 457.33 219.81"/><polygon class="cls-1" points="525.99 259.46 428.12 316.33 479.79 346.17 460.39 357.44 384.4 313.57 501.67 245.42 525.99 259.46"/><polygon class="cls-1" points="645.83 328.64 547.96 385.52 599.63 415.35 580.22 426.63 504.24 382.76 621.51 314.61 645.83 328.64"/><path class="cls-1" d="M799.4,417.31,726.32,511l-25.86-14.93,16-18.76-42.71-24.65L641.51,462l-25.91-15,161.28-42.75Zm-99.52,27.76,29.54,17.06L758.49,428l-58.61,17"/><path class="cls-1" d="M156.75,44.84c8.47,4.89,14.41,10.1,18,15.68s4.38,11,2.47,16.34-6.3,10-13.38,14.13L139.55,77c5.39-3.14,7.86-6.53,7.44-10.27s-3.72-7.31-9.9-10.88A41.36,41.36,0,0,0,119.48,50c-5.77-.46-10.73.52-14.79,2.88-3.81,2.22-5.13,5.18-3.82,8.92s4.57,8.43,9.86,14.07c9.65,10.38,14.61,19.21,14.85,26.41s-4.29,13.46-13.4,18.75c-10.2,5.93-22,8.32-35.52,7.2s-26.8-5.44-39.86-13Q23.12,107.35,16.94,98c-4.16-6.25-5.34-12.14-3.53-17.75s6.55-10.62,14.12-15L52,79.37q-19.46,11.3,4,24.77A41.65,41.65,0,0,0,73,109.92,23.87,23.87,0,0,0,87.56,107c4.61-2.67,6.48-5.61,5.72-8.92S89.16,90,83.46,83.51s-9.7-11.85-12-16.23q-9.35-17.87,8.93-28.51A53.58,53.58,0,0,1,102.79,32a82.91,82.91,0,0,1,27.08,2.16A98.86,98.86,0,0,1,156.75,44.84Z"/><polygon class="cls-1" points="333.75 148.93 314.19 160.29 278.02 139.41 180.3 196.2 155.98 182.16 253.7 125.37 218.03 104.77 237.58 93.4 333.75 148.93"/><polygon class="cls-1" points="456.53 219.81 436.97 231.18 382.31 199.62 354.34 215.87 401.03 242.83 382.12 253.82 335.43 226.86 303.99 245.13 358.81 276.78 339.4 288.05 260.27 242.37 377.55 174.22 456.53 219.81"/><polygon class="cls-1" points="525.19 259.46 427.32 316.33 478.99 346.17 459.59 357.44 383.6 313.57 500.87 245.42 525.19 259.46"/><polygon class="cls-1" points="645.03 328.64 547.16 385.52 598.83 415.35 579.42 426.63 503.44 382.76 620.71 314.61 645.03 328.64"/><path class="cls-1" d="M798.6,417.31,725.52,511l-25.86-14.93,16-18.76-42.71-24.65L640.71,462l-25.91-15,161.28-42.75Zm-99.52,27.76,29.54,17.06L757.69,428l-58.61,17"/><path class="cls-1" d="M156,44.84c8.47,4.89,14.41,10.1,18,15.68s4.38,11,2.47,16.34-6.3,10-13.38,14.13L138.75,77c5.39-3.14,7.86-6.53,7.44-10.27s-3.72-7.31-9.9-10.88A41.36,41.36,0,0,0,118.68,50c-5.77-.46-10.73.52-14.79,2.88-3.81,2.22-5.13,5.18-3.82,8.92s4.57,8.43,9.86,14.07c9.65,10.38,14.61,19.21,14.85,26.41s-4.29,13.46-13.4,18.75c-10.2,5.93-22,8.32-35.52,7.2s-26.8-5.44-39.86-13Q22.32,107.35,16.14,98C12,91.79,10.8,85.9,12.61,80.29s6.55-10.62,14.12-15l24.42,14.1q-19.45,11.3,4,24.77a41.65,41.65,0,0,0,17.07,5.78A23.87,23.87,0,0,0,86.76,107c4.61-2.67,6.48-5.61,5.72-8.92S88.36,90,82.66,83.51s-9.7-11.85-12-16.23q-9.35-17.87,8.93-28.51A53.58,53.58,0,0,1,102,32a82.91,82.91,0,0,1,27.08,2.16A98.86,98.86,0,0,1,156,44.84Z"/><polygon class="cls-1" points="332.95 148.93 313.39 160.29 277.22 139.41 179.5 196.2 155.18 182.16 252.9 125.37 217.23 104.77 236.78 93.4 332.95 148.93"/><polygon class="cls-1" points="455.73 219.81 436.17 231.18 381.51 199.62 353.54 215.87 400.23 242.83 381.32 253.82 334.63 226.86 303.19 245.13 358.01 276.78 338.6 288.05 259.47 242.37 376.75 174.22 455.73 219.81"/><polygon class="cls-1" points="524.39 259.46 426.52 316.33 478.19 346.17 458.79 357.44 382.8 313.57 500.07 245.42 524.39 259.46"/><polygon class="cls-1" points="644.23 328.64 546.36 385.52 598.03 415.35 578.62 426.63 502.63 382.76 619.91 314.61 644.23 328.64"/><path class="cls-1" d="M797.8,417.31,724.72,511l-25.86-14.93,16-18.76-42.71-24.65L639.91,462l-25.91-15,161.28-42.75Zm-99.52,27.76,29.54,17.06L756.89,428l-58.61,17"/><path class="cls-1" d="M155.15,44.84c8.47,4.89,14.41,10.1,18,15.68s4.38,11,2.47,16.34-6.3,10-13.38,14.13L138,77c5.39-3.14,7.86-6.53,7.44-10.27s-3.72-7.31-9.9-10.88A41.36,41.36,0,0,0,117.88,50c-5.77-.46-10.73.52-14.79,2.88-3.81,2.22-5.13,5.18-3.82,8.92s4.57,8.43,9.86,14.07c9.65,10.38,14.61,19.21,14.85,26.41s-4.29,13.46-13.4,18.75c-10.2,5.93-22,8.32-35.52,7.2s-26.8-5.44-39.86-13Q21.52,107.35,15.34,98C11.18,91.79,10,85.9,11.81,80.29s6.55-10.62,14.12-15l24.42,14.1q-19.45,11.3,4,24.77a41.65,41.65,0,0,0,17.07,5.78A23.87,23.87,0,0,0,86,107c4.61-2.67,6.48-5.61,5.72-8.92S87.56,90,81.86,83.51s-9.7-11.85-12-16.23q-9.34-17.87,8.93-28.51A53.58,53.58,0,0,1,101.19,32a82.91,82.91,0,0,1,27.08,2.16A98.86,98.86,0,0,1,155.15,44.84Z"/><polygon class="cls-1" points="332.15 148.93 312.6 160.29 276.42 139.41 178.7 196.2 154.38 182.16 252.1 125.37 216.43 104.77 235.98 93.4 332.15 148.93"/><polygon class="cls-1" points="454.93 219.81 435.37 231.18 380.71 199.62 352.74 215.87 399.43 242.83 380.52 253.82 333.83 226.86 302.39 245.13 357.21 276.78 337.8 288.05 258.67 242.37 375.95 174.22 454.93 219.81"/><polygon class="cls-1" points="523.59 259.46 425.72 316.33 477.39 346.17 457.99 357.44 382 313.57 499.27 245.42 523.59 259.46"/><polygon class="cls-1" points="643.43 328.64 545.56 385.52 597.23 415.35 577.82 426.63 501.83 382.76 619.11 314.61 643.43 328.64"/><path class="cls-1" d="M797,417.31,723.92,511l-25.86-14.93,16-18.76-42.71-24.65L639.11,462l-25.91-15,161.28-42.75Zm-99.52,27.76L727,462.13,756.09,428l-58.61,17"/><path class="cls-1" d="M154.35,44.84c8.47,4.89,14.41,10.1,18,15.68s4.38,11,2.47,16.34-6.3,10-13.38,14.13L137.15,77c5.39-3.14,7.86-6.53,7.44-10.27s-3.72-7.31-9.9-10.88A41.36,41.36,0,0,0,117.08,50c-5.77-.46-10.73.52-14.79,2.88-3.81,2.22-5.13,5.18-3.82,8.92s4.57,8.43,9.86,14.07c9.65,10.38,14.61,19.21,14.85,26.41s-4.29,13.46-13.4,18.75c-10.2,5.93-22,8.32-35.52,7.2s-26.8-5.44-39.86-13Q20.72,107.35,14.54,98C10.38,91.79,9.2,85.9,11,80.29s6.55-10.62,14.12-15l24.42,14.1q-19.45,11.3,4,24.77a41.65,41.65,0,0,0,17.07,5.78A23.87,23.87,0,0,0,85.16,107c4.61-2.67,6.48-5.61,5.72-8.92S86.76,90,81.06,83.51s-9.7-11.85-12-16.23Q59.71,49.41,78,38.77A53.58,53.58,0,0,1,100.39,32a82.91,82.91,0,0,1,27.08,2.16A98.86,98.86,0,0,1,154.35,44.84Z"/><polygon class="cls-1" points="331.35 148.93 311.8 160.29 275.62 139.41 177.9 196.2 153.58 182.16 251.3 125.37 215.63 104.77 235.18 93.4 331.35 148.93"/><polygon class="cls-1" points="454.13 219.81 434.57 231.18 379.91 199.62 351.94 215.87 398.63 242.83 379.72 253.82 333.03 226.86 301.59 245.13 356.41 276.78 337 288.05 257.87 242.37 375.15 174.22 454.13 219.81"/><polygon class="cls-1" points="522.79 259.46 424.92 316.33 476.59 346.17 457.19 357.44 381.2 313.57 498.47 245.42 522.79 259.46"/><polygon class="cls-1" points="642.63 328.64 544.76 385.52 596.43 415.35 577.02 426.63 501.04 382.76 618.31 314.61 642.63 328.64"/><path class="cls-1" d="M796.2,417.31,723.12,511l-25.86-14.93,16-18.76-42.71-24.65L638.31,462l-25.91-15,161.28-42.75Zm-99.52,27.76,29.54,17.06L755.29,428l-58.61,17"/><path class="cls-1" d="M153.55,44.84c8.47,4.89,14.41,10.1,18,15.68s4.38,11,2.47,16.34-6.3,10-13.38,14.13L136.35,77c5.39-3.14,7.86-6.53,7.44-10.27s-3.72-7.31-9.9-10.88A41.36,41.36,0,0,0,116.28,50c-5.77-.46-10.73.52-14.79,2.88-3.81,2.22-5.13,5.18-3.82,8.92s4.57,8.43,9.86,14.07c9.65,10.38,14.61,19.21,14.85,26.41S118.09,115.73,109,121c-10.2,5.93-22,8.32-35.52,7.2s-26.8-5.44-39.86-13Q19.92,107.35,13.74,98C9.58,91.79,8.4,85.9,10.21,80.29s6.55-10.62,14.12-15l24.42,14.1q-19.45,11.3,4,24.77a41.65,41.65,0,0,0,17.07,5.78A23.87,23.87,0,0,0,84.36,107c4.61-2.67,6.48-5.61,5.72-8.92S86,90,80.26,83.51s-9.7-11.85-12-16.23q-9.34-17.87,8.93-28.51A53.58,53.58,0,0,1,99.59,32a82.91,82.91,0,0,1,27.08,2.16A98.86,98.86,0,0,1,153.55,44.84Z"/><polygon class="cls-1" points="330.55 148.93 311 160.29 274.82 139.41 177.1 196.2 152.78 182.16 250.5 125.37 214.83 104.77 234.38 93.4 330.55 148.93"/><polygon class="cls-1" points="453.33 219.81 433.77 231.18 379.11 199.62 351.14 215.87 397.83 242.83 378.92 253.82 332.23 226.86 300.79 245.13 355.61 276.78 336.2 288.05 257.07 242.37 374.35 174.22 453.33 219.81"/><polygon class="cls-1" points="521.99 259.46 424.12 316.33 475.79 346.17 456.39 357.44 380.4 313.57 497.67 245.42 521.99 259.46"/><polygon class="cls-1" points="641.83 328.64 543.96 385.52 595.63 415.35 576.22 426.63 500.24 382.76 617.51 314.61 641.83 328.64"/><path class="cls-1" d="M795.4,417.31,722.32,511l-25.86-14.93,16-18.76-42.71-24.65L637.51,462l-25.91-15,161.28-42.75Zm-99.52,27.76,29.54,17.06L754.49,428l-58.61,17"/><path class="cls-1" d="M152.75,44.84c8.47,4.89,14.41,10.1,18,15.68s4.38,11,2.47,16.34-6.3,10-13.38,14.13L135.55,77c5.39-3.14,7.86-6.53,7.44-10.27s-3.72-7.31-9.9-10.88A41.36,41.36,0,0,0,115.48,50c-5.77-.46-10.73.52-14.79,2.88-3.81,2.22-5.13,5.18-3.82,8.92s4.57,8.43,9.86,14.07c9.65,10.38,14.61,19.21,14.85,26.41s-4.29,13.46-13.4,18.75c-10.2,5.93-22,8.32-35.52,7.2s-26.8-5.44-39.86-13Q19.12,107.35,12.94,98C8.78,91.79,7.6,85.9,9.41,80.29s6.55-10.62,14.12-15L48,79.37q-19.46,11.3,4,24.77A41.65,41.65,0,0,0,69,109.92,23.87,23.87,0,0,0,83.56,107c4.61-2.67,6.48-5.61,5.72-8.92S85.16,90,79.46,83.51s-9.7-11.85-12-16.23q-9.35-17.87,8.93-28.51A53.58,53.58,0,0,1,98.79,32a82.91,82.91,0,0,1,27.08,2.16A98.86,98.86,0,0,1,152.75,44.84Z"/><polygon class="cls-1" points="329.75 148.93 310.19 160.29 274.02 139.41 176.3 196.2 151.98 182.16 249.7 125.37 214.03 104.77 233.58 93.4 329.75 148.93"/><polygon class="cls-1" points="452.53 219.81 432.97 231.18 378.31 199.62 350.34 215.87 397.03 242.83 378.12 253.82 331.43 226.86 299.99 245.13 354.81 276.78 335.4 288.05 256.27 242.37 373.55 174.22 452.53 219.81"/><polygon class="cls-1" points="521.19 259.46 423.32 316.33 474.99 346.17 455.59 357.44 379.6 313.57 496.87 245.42 521.19 259.46"/><polygon class="cls-1" points="641.03 328.64 543.16 385.52 594.83 415.35 575.42 426.63 499.44 382.76 616.71 314.61 641.03 328.64"/><path class="cls-1" d="M794.6,417.31,721.52,511l-25.86-14.93,16-18.76-42.71-24.65L636.71,462l-25.91-15,161.28-42.75Zm-99.52,27.76,29.54,17.06L753.69,428l-58.61,17"/><path class="cls-1" d="M152,44.84c8.47,4.89,14.41,10.1,18,15.68s4.38,11,2.47,16.34-6.3,10-13.38,14.13L134.75,77c5.39-3.14,7.86-6.53,7.44-10.27s-3.72-7.31-9.9-10.88A41.36,41.36,0,0,0,114.68,50c-5.77-.46-10.73.52-14.79,2.88-3.81,2.22-5.13,5.18-3.82,8.92s4.57,8.43,9.86,14.07c9.65,10.38,14.61,19.21,14.85,26.41s-4.29,13.46-13.4,18.75c-10.2,5.93-22,8.32-35.52,7.2s-26.8-5.44-39.86-13Q18.32,107.35,12.14,98C8,91.79,6.8,85.9,8.61,80.29s6.55-10.62,14.12-15l24.42,14.1q-19.45,11.3,4,24.77a41.65,41.65,0,0,0,17.07,5.78A23.87,23.87,0,0,0,82.76,107c4.61-2.67,6.48-5.61,5.72-8.92S84.36,90,78.66,83.51s-9.7-11.85-12-16.23q-9.35-17.87,8.93-28.51A53.58,53.58,0,0,1,98,32a82.91,82.91,0,0,1,27.08,2.16A98.86,98.86,0,0,1,152,44.84Z"/><polygon class="cls-1" points="328.95 148.93 309.39 160.29 273.22 139.41 175.5 196.2 151.18 182.16 248.9 125.37 213.23 104.77 232.78 93.4 328.95 148.93"/><polygon class="cls-1" points="451.73 219.81 432.17 231.18 377.51 199.62 349.54 215.87 396.23 242.83 377.32 253.82 330.63 226.86 299.19 245.13 354.01 276.78 334.6 288.05 255.47 242.37 372.75 174.22 451.73 219.81"/><polygon class="cls-1" points="520.39 259.46 422.52 316.33 474.19 346.17 454.79 357.44 378.8 313.57 496.07 245.42 520.39 259.46"/><polygon class="cls-1" points="640.23 328.64 542.36 385.52 594.03 415.35 574.62 426.63 498.63 382.76 615.91 314.61 640.23 328.64"/><path class="cls-1" d="M793.8,417.31,720.72,511l-25.86-14.93,16-18.76-42.71-24.65L635.91,462l-25.91-15,161.28-42.75Zm-99.52,27.76,29.54,17.06L752.89,428l-58.61,17"/><path class="cls-1" d="M151.15,44.84c8.47,4.89,14.41,10.1,18,15.68s4.38,11,2.47,16.34-6.3,10-13.38,14.13L134,77c5.39-3.14,7.86-6.53,7.44-10.27s-3.72-7.31-9.9-10.88A41.36,41.36,0,0,0,113.88,50c-5.77-.46-10.73.52-14.79,2.88-3.81,2.22-5.13,5.18-3.82,8.92s4.57,8.43,9.86,14.07c9.65,10.38,14.61,19.21,14.85,26.41s-4.29,13.46-13.4,18.75c-10.2,5.93-22,8.32-35.52,7.2s-26.8-5.44-39.86-13Q17.52,107.35,11.34,98C7.18,91.79,6,85.9,7.81,80.29s6.55-10.62,14.12-15l24.42,14.1q-19.45,11.3,4,24.77a41.65,41.65,0,0,0,17.07,5.78A23.87,23.87,0,0,0,82,107c4.61-2.67,6.48-5.61,5.72-8.92S83.56,90,77.86,83.51s-9.7-11.85-12-16.23q-9.34-17.87,8.93-28.51A53.58,53.58,0,0,1,97.19,32a82.91,82.91,0,0,1,27.08,2.16A98.86,98.86,0,0,1,151.15,44.84Z"/><polygon class="cls-1" points="328.15 148.93 308.6 160.29 272.42 139.41 174.7 196.2 150.38 182.16 248.1 125.37 212.43 104.77 231.98 93.4 328.15 148.93"/><polygon class="cls-1" points="450.93 219.81 431.37 231.18 376.71 199.62 348.74 215.87 395.43 242.83 376.52 253.82 329.83 226.86 298.39 245.13 353.21 276.78 333.8 288.05 254.67 242.37 371.95 174.22 450.93 219.81"/><polygon class="cls-1" points="519.59 259.46 421.72 316.33 473.39 346.17 453.99 357.44 378 313.57 495.27 245.42 519.59 259.46"/><polygon class="cls-1" points="639.43 328.64 541.56 385.52 593.23 415.35 573.82 426.63 497.83 382.76 615.11 314.61 639.43 328.64"/><path class="cls-1" d="M793,417.31,719.92,511l-25.86-14.93,16-18.76-42.71-24.65L635.11,462l-25.91-15,161.28-42.75Zm-99.52,27.76L723,462.13,752.09,428l-58.61,17"/><path class="cls-1" d="M150.35,44.84c8.47,4.89,14.41,10.1,18,15.68s4.38,11,2.47,16.34-6.3,10-13.38,14.13L133.15,77c5.39-3.14,7.86-6.53,7.44-10.27s-3.72-7.31-9.9-10.88A41.36,41.36,0,0,0,113.08,50c-5.77-.46-10.73.52-14.79,2.88-3.81,2.22-5.13,5.18-3.82,8.92s4.57,8.43,9.86,14.07c9.65,10.38,14.61,19.21,14.85,26.41s-4.29,13.46-13.4,18.75c-10.2,5.93-22,8.32-35.52,7.2s-26.8-5.44-39.86-13Q16.72,107.35,10.54,98C6.38,91.79,5.2,85.9,7,80.29s6.55-10.62,14.12-15l24.42,14.1q-19.45,11.3,4,24.77a41.65,41.65,0,0,0,17.07,5.78A23.87,23.87,0,0,0,81.16,107c4.61-2.67,6.48-5.61,5.72-8.92S82.76,90,77.06,83.51s-9.7-11.85-12-16.23Q55.71,49.41,74,38.77A53.58,53.58,0,0,1,96.39,32a82.91,82.91,0,0,1,27.08,2.16A98.86,98.86,0,0,1,150.35,44.84Z"/><polygon class="cls-1" points="327.35 148.93 307.8 160.29 271.62 139.41 173.9 196.2 149.58 182.16 247.3 125.37 211.63 104.77 231.18 93.4 327.35 148.93"/><polygon class="cls-1" points="450.13 219.81 430.57 231.18 375.91 199.62 347.94 215.87 394.63 242.83 375.72 253.82 329.03 226.86 297.59 245.13 352.41 276.78 333 288.05 253.87 242.37 371.15 174.22 450.13 219.81"/><polygon class="cls-1" points="518.79 259.46 420.92 316.33 472.59 346.17 453.19 357.44 377.2 313.57 494.47 245.42 518.79 259.46"/><polygon class="cls-1" points="638.63 328.64 540.76 385.52 592.43 415.35 573.02 426.63 497.04 382.76 614.31 314.61 638.63 328.64"/><path class="cls-1" d="M792.2,417.31,719.12,511l-25.86-14.93,16-18.76-42.71-24.65L634.31,462l-25.91-15,161.28-42.75Zm-99.52,27.76,29.54,17.06L751.29,428l-58.61,17"/><path class="cls-1" d="M149.55,44.84c8.47,4.89,14.41,10.1,18,15.68s4.38,11,2.47,16.34-6.3,10-13.38,14.13L132.35,77c5.39-3.14,7.86-6.53,7.44-10.27s-3.72-7.31-9.9-10.88A41.36,41.36,0,0,0,112.28,50c-5.77-.46-10.73.52-14.79,2.88-3.81,2.22-5.13,5.18-3.82,8.92s4.57,8.43,9.86,14.07c9.65,10.38,14.61,19.21,14.85,26.41S114.09,115.73,105,121c-10.2,5.93-22,8.32-35.52,7.2s-26.8-5.44-39.86-13Q15.92,107.35,9.74,98C5.58,91.79,4.4,85.9,6.21,80.29s6.55-10.62,14.12-15l24.42,14.1q-19.45,11.3,4,24.77a41.65,41.65,0,0,0,17.07,5.78A23.87,23.87,0,0,0,80.36,107c4.61-2.67,6.48-5.61,5.72-8.92S82,90,76.26,83.51s-9.7-11.85-12-16.23q-9.34-17.87,8.93-28.51A53.58,53.58,0,0,1,95.59,32a82.91,82.91,0,0,1,27.08,2.16A98.86,98.86,0,0,1,149.55,44.84Z"/><polygon class="cls-1" points="326.55 148.93 307 160.29 270.82 139.41 173.1 196.2 148.78 182.16 246.5 125.37 210.83 104.77 230.38 93.4 326.55 148.93"/><polygon class="cls-1" points="449.33 219.81 429.77 231.18 375.11 199.62 347.14 215.87 393.83 242.83 374.92 253.82 328.23 226.86 296.79 245.13 351.61 276.78 332.2 288.05 253.07 242.37 370.35 174.22 449.33 219.81"/><polygon class="cls-1" points="517.99 259.46 420.12 316.33 471.79 346.17 452.39 357.44 376.4 313.57 493.67 245.42 517.99 259.46"/><polygon class="cls-1" points="637.83 328.64 539.96 385.52 591.63 415.35 572.22 426.63 496.24 382.76 613.51 314.61 637.83 328.64"/><path class="cls-1" d="M791.4,417.31,718.32,511l-25.86-14.93,16-18.76-42.71-24.65L633.51,462l-25.91-15,161.28-42.75Zm-99.52,27.76,29.54,17.06L750.49,428l-58.61,17"/><path class="cls-1" d="M148.75,44.84c8.47,4.89,14.41,10.1,18,15.68s4.38,11,2.47,16.34-6.3,10-13.38,14.13L131.55,77c5.39-3.14,7.86-6.53,7.44-10.27s-3.72-7.31-9.9-10.88A41.36,41.36,0,0,0,111.48,50c-5.77-.46-10.73.52-14.79,2.88-3.81,2.22-5.13,5.18-3.82,8.92s4.57,8.43,9.86,14.07c9.65,10.38,14.61,19.21,14.85,26.41s-4.29,13.46-13.4,18.75c-10.2,5.93-22,8.32-35.52,7.2s-26.8-5.44-39.86-13Q15.12,107.35,8.94,98C4.78,91.79,3.6,85.9,5.41,80.29s6.55-10.62,14.12-15L44,79.37q-19.46,11.3,4,24.77A41.65,41.65,0,0,0,65,109.92,23.87,23.87,0,0,0,79.56,107c4.61-2.67,6.48-5.61,5.72-8.92S81.16,90,75.46,83.51s-9.7-11.85-12-16.23q-9.35-17.87,8.93-28.51A53.58,53.58,0,0,1,94.79,32a82.91,82.91,0,0,1,27.08,2.16A98.86,98.86,0,0,1,148.75,44.84Z"/><polygon class="cls-1" points="325.75 148.93 306.19 160.29 270.02 139.41 172.3 196.2 147.98 182.16 245.7 125.37 210.03 104.77 229.58 93.4 325.75 148.93"/><polygon class="cls-1" points="448.53 219.81 428.97 231.18 374.31 199.62 346.34 215.87 393.03 242.83 374.12 253.82 327.43 226.86 295.99 245.13 350.81 276.78 331.4 288.05 252.27 242.37 369.55 174.22 448.53 219.81"/><polygon class="cls-1" points="517.19 259.46 419.32 316.33 470.99 346.17 451.59 357.44 375.6 313.57 492.87 245.42 517.19 259.46"/><polygon class="cls-1" points="637.03 328.64 539.16 385.52 590.83 415.35 571.42 426.63 495.44 382.76 612.71 314.61 637.03 328.64"/><path class="cls-1" d="M790.6,417.31,717.52,511l-25.86-14.93,16-18.76-42.71-24.65L632.71,462l-25.91-15,161.28-42.75Zm-99.52,27.76,29.54,17.06L749.69,428l-58.61,17"/><path class="cls-1" d="M148,44.84c8.47,4.89,14.41,10.1,18,15.68s4.38,11,2.47,16.34-6.3,10-13.38,14.13L130.75,77c5.39-3.14,7.86-6.53,7.44-10.27s-3.72-7.31-9.9-10.88A41.36,41.36,0,0,0,110.68,50c-5.77-.46-10.73.52-14.79,2.88-3.81,2.22-5.13,5.18-3.82,8.92s4.57,8.43,9.86,14.07c9.65,10.38,14.61,19.21,14.85,26.41s-4.29,13.46-13.4,18.75c-10.2,5.93-22,8.32-35.52,7.2s-26.8-5.44-39.86-13Q14.32,107.35,8.14,98C4,91.79,2.8,85.9,4.61,80.29s6.55-10.62,14.12-15l24.42,14.1q-19.45,11.3,4,24.77a41.65,41.65,0,0,0,17.07,5.78A23.87,23.87,0,0,0,78.76,107c4.61-2.67,6.48-5.61,5.72-8.92S80.36,90,74.66,83.51s-9.7-11.85-12-16.23q-9.34-17.87,8.93-28.51A53.58,53.58,0,0,1,94,32a82.91,82.91,0,0,1,27.08,2.16A98.86,98.86,0,0,1,148,44.84Z"/><polygon class="cls-1" points="324.95 148.93 305.39 160.29 269.22 139.41 171.5 196.2 147.18 182.16 244.9 125.37 209.23 104.77 228.78 93.4 324.95 148.93"/><polygon class="cls-1" points="447.73 219.81 428.17 231.18 373.51 199.62 345.54 215.87 392.23 242.83 373.32 253.82 326.63 226.86 295.19 245.13 350.01 276.78 330.6 288.05 251.47 242.37 368.75 174.22 447.73 219.81"/><polygon class="cls-1" points="516.39 259.46 418.52 316.33 470.19 346.17 450.79 357.44 374.8 313.57 492.07 245.42 516.39 259.46"/><polygon class="cls-1" points="636.23 328.64 538.36 385.52 590.03 415.35 570.62 426.63 494.63 382.76 611.91 314.61 636.23 328.64"/><path class="cls-1" d="M789.8,417.31,716.72,511l-25.86-14.93,16-18.76-42.71-24.65L631.91,462l-25.91-15,161.28-42.75Zm-99.52,27.76,29.54,17.06L748.89,428l-58.61,17"/><path class="cls-1" d="M147.15,44.84c8.47,4.89,14.41,10.1,18,15.68s4.38,11,2.47,16.34-6.3,10-13.38,14.13L130,77c5.39-3.14,7.86-6.53,7.44-10.27s-3.72-7.31-9.9-10.88A41.36,41.36,0,0,0,109.88,50c-5.77-.46-10.73.52-14.79,2.88-3.81,2.22-5.13,5.18-3.82,8.92s4.57,8.43,9.86,14.07c9.65,10.38,14.61,19.21,14.85,26.41s-4.29,13.46-13.4,18.75c-10.2,5.93-22,8.32-35.52,7.2s-26.8-5.44-39.86-13Q13.52,107.35,7.34,98C3.18,91.79,2,85.9,3.81,80.29s6.55-10.62,14.12-15l24.42,14.1q-19.46,11.3,4,24.77a41.65,41.65,0,0,0,17.07,5.78A23.87,23.87,0,0,0,78,107c4.61-2.67,6.48-5.61,5.72-8.92S79.56,90,73.86,83.51s-9.7-11.85-12-16.23q-9.35-17.87,8.93-28.51A53.58,53.58,0,0,1,93.19,32a82.91,82.91,0,0,1,27.08,2.16A98.86,98.86,0,0,1,147.15,44.84Z"/><polygon class="cls-1" points="324.15 148.93 304.6 160.29 268.42 139.41 170.7 196.2 146.38 182.16 244.1 125.37 208.43 104.77 227.98 93.4 324.15 148.93"/><polygon class="cls-1" points="446.93 219.81 427.37 231.18 372.71 199.62 344.74 215.87 391.43 242.83 372.52 253.82 325.83 226.86 294.39 245.13 349.21 276.78 329.8 288.05 250.67 242.37 367.95 174.22 446.93 219.81"/><polygon class="cls-1" points="515.59 259.46 417.72 316.33 469.39 346.17 449.99 357.44 374 313.57 491.27 245.42 515.59 259.46"/><polygon class="cls-1" points="635.43 328.64 537.56 385.52 589.23 415.35 569.82 426.63 493.83 382.76 611.11 314.61 635.43 328.64"/><path class="cls-1" d="M789,417.31,715.92,511l-25.86-14.93,16-18.76-42.71-24.65L631.11,462l-25.91-15,161.28-42.75Zm-99.52,27.76L719,462.13,748.09,428l-58.61,17"/><path class="cls-1" d="M146.35,44.84c8.47,4.89,14.41,10.1,18,15.68s4.38,11,2.47,16.34-6.3,10-13.38,14.13L129.15,77c5.39-3.14,7.86-6.53,7.44-10.27s-3.72-7.31-9.9-10.88A41.36,41.36,0,0,0,109.08,50c-5.77-.46-10.73.52-14.79,2.88-3.81,2.22-5.13,5.18-3.82,8.92s4.57,8.43,9.86,14.07c9.65,10.38,14.61,19.21,14.85,26.41s-4.29,13.46-13.4,18.75c-10.2,5.93-22,8.32-35.52,7.2s-26.8-5.44-39.86-13Q12.72,107.35,6.54,98C2.38,91.79,1.2,85.9,3,80.29s6.55-10.62,14.12-15l24.42,14.1q-19.45,11.3,4,24.77a41.65,41.65,0,0,0,17.07,5.78A23.87,23.87,0,0,0,77.16,107c4.61-2.67,6.48-5.61,5.72-8.92S78.76,90,73.06,83.51s-9.7-11.85-12-16.23Q51.71,49.41,70,38.77A53.58,53.58,0,0,1,92.39,32a82.91,82.91,0,0,1,27.08,2.16A98.86,98.86,0,0,1,146.35,44.84Z"/><polygon class="cls-1" points="323.35 148.93 303.8 160.29 267.62 139.41 169.9 196.2 145.58 182.16 243.3 125.37 207.63 104.77 227.18 93.4 323.35 148.93"/><polygon class="cls-1" points="446.13 219.81 426.57 231.18 371.91 199.62 343.94 215.87 390.63 242.83 371.72 253.82 325.03 226.86 293.59 245.13 348.41 276.78 329 288.05 249.87 242.37 367.15 174.22 446.13 219.81"/><polygon class="cls-1" points="514.79 259.46 416.92 316.33 468.59 346.17 449.19 357.44 373.2 313.57 490.47 245.42 514.79 259.46"/><polygon class="cls-1" points="634.63 328.64 536.76 385.52 588.43 415.35 569.02 426.63 493.04 382.76 610.31 314.61 634.63 328.64"/><path class="cls-1" d="M788.2,417.31,715.12,511l-25.86-14.93,16-18.76-42.71-24.65L630.31,462l-25.91-15,161.28-42.75Zm-99.52,27.76,29.54,17.06L747.29,428l-58.61,17"/><path class="cls-1" d="M145.55,44.84c8.47,4.89,14.41,10.1,18,15.68s4.38,11,2.47,16.34-6.3,10-13.38,14.13L128.35,77c5.39-3.14,7.86-6.53,7.44-10.27s-3.72-7.31-9.9-10.88A41.36,41.36,0,0,0,108.28,50c-5.77-.46-10.73.52-14.79,2.88-3.81,2.22-5.13,5.18-3.82,8.92s4.57,8.43,9.86,14.07c9.65,10.38,14.61,19.21,14.85,26.41S110.09,115.73,101,121c-10.2,5.93-22,8.32-35.52,7.2s-26.8-5.44-39.86-13Q11.92,107.35,5.74,98C1.58,91.79.4,85.9,2.21,80.29s6.55-10.62,14.12-15l24.42,14.1q-19.45,11.3,4,24.77a41.65,41.65,0,0,0,17.07,5.78A23.87,23.87,0,0,0,76.36,107c4.61-2.67,6.48-5.61,5.72-8.92S78,90,72.26,83.51s-9.7-11.85-12-16.23q-9.34-17.87,8.93-28.51A53.58,53.58,0,0,1,91.59,32a82.91,82.91,0,0,1,27.08,2.16A98.86,98.86,0,0,1,145.55,44.84Z"/><polygon class="cls-1" points="322.55 148.93 303 160.29 266.82 139.41 169.1 196.2 144.78 182.16 242.5 125.37 206.83 104.77 226.38 93.4 322.55 148.93"/><polygon class="cls-1" points="445.33 219.81 425.77 231.18 371.11 199.62 343.14 215.87 389.83 242.83 370.92 253.82 324.23 226.86 292.79 245.13 347.61 276.78 328.2 288.05 249.07 242.37 366.35 174.22 445.33 219.81"/><polygon class="cls-1" points="513.99 259.46 416.12 316.33 467.79 346.17 448.39 357.44 372.4 313.57 489.67 245.42 513.99 259.46"/><polygon class="cls-1" points="633.83 328.64 535.96 385.52 587.63 415.35 568.22 426.63 492.24 382.76 609.51 314.61 633.83 328.64"/><path class="cls-1" d="M787.4,417.31,714.32,511l-25.86-14.93,16-18.76-42.71-24.65L629.51,462l-25.91-15,161.28-42.75Zm-99.52,27.76,29.54,17.06L746.49,428l-58.61,17"/><path class="cls-1" d="M144.75,44.84c8.47,4.89,14.41,10.1,18,15.68s4.38,11,2.47,16.34-6.3,10-13.38,14.13L127.55,77c5.39-3.14,7.86-6.53,7.44-10.27s-3.72-7.31-9.9-10.88A41.36,41.36,0,0,0,107.48,50c-5.77-.46-10.73.52-14.79,2.88-3.81,2.22-5.13,5.18-3.82,8.92s4.57,8.43,9.86,14.07c9.65,10.38,14.61,19.21,14.85,26.41s-4.29,13.46-13.4,18.75c-10.2,5.93-22,8.32-35.52,7.2s-26.8-5.44-39.86-13Q11.12,107.35,4.94,98C.78,91.79-.4,85.9,1.41,80.29S8,69.67,15.53,65.27L40,79.37q-19.46,11.3,4,24.77A41.65,41.65,0,0,0,61,109.92,23.87,23.87,0,0,0,75.56,107c4.61-2.67,6.48-5.61,5.72-8.92S77.16,90,71.46,83.51s-9.7-11.85-12-16.23q-9.35-17.87,8.93-28.51A53.58,53.58,0,0,1,90.79,32a82.91,82.91,0,0,1,27.08,2.16A98.86,98.86,0,0,1,144.75,44.84Z"/><polygon class="cls-1" points="321.75 148.93 302.19 160.29 266.02 139.41 168.3 196.2 143.98 182.16 241.7 125.37 206.03 104.77 225.58 93.4 321.75 148.93"/><polygon class="cls-1" points="444.53 219.81 424.97 231.18 370.31 199.62 342.34 215.87 389.03 242.83 370.12 253.82 323.43 226.86 291.99 245.13 346.81 276.78 327.4 288.05 248.27 242.37 365.55 174.22 444.53 219.81"/><polygon class="cls-1" points="513.19 259.46 415.32 316.33 466.99 346.17 447.59 357.44 371.6 313.57 488.87 245.42 513.19 259.46"/><polygon class="cls-1" points="633.03 328.64 535.16 385.52 586.83 415.35 567.42 426.63 491.44 382.76 608.71 314.61 633.03 328.64"/><path class="cls-1" d="M786.6,417.31,713.52,511l-25.86-14.93,16-18.76-42.71-24.65L628.71,462l-25.91-15,161.28-42.75Zm-99.52,27.76,29.54,17.06L745.69,428l-58.61,17"/><path class="cls-2" d="M135,36.29l-.09,31.81a7.69,7.69,0,0,0,0-.83q-.63-5.52-9.9-10.87a41.38,41.38,0,0,0-17.61-5.82c-5.77-.46-10.73.52-14.79,2.88-2.85,1.66-4.31,3.73-4.31,6.24l.09-31.81c0-2.51,1.46-4.58,4.31-6.24,4.06-2.36,9-3.33,14.79-2.87a41.23,41.23,0,0,1,17.61,5.81q9.27,5.34,9.9,10.87A7.81,7.81,0,0,1,135,36.29Z"/><path class="cls-2" d="M31,90.63l.09-31.81q0-5.55,8.83-10.67L39.86,80Q31,85.08,31,90.63Z"/><polygon class="cls-2" points="151.86 59.77 151.77 91.58 127.45 77.54 127.55 45.73 151.86 59.77"/><path class="cls-3" d="M166.24,40.07l-.09,31.81a16.67,16.67,0,0,1-1,5.57c-1.86,5.3-6.3,10-13.38,14.13l.09-31.81c7.08-4.11,11.52-8.83,13.38-14.12A16.77,16.77,0,0,0,166.24,40.07Z"/><path class="cls-2" d="M81.44,68.33l-.09,31.81a6.46,6.46,0,0,0-.16-1.43c-.87-3.3-4.12-8.17-9.82-14.61s-9.7-11.85-12-16.23A24.39,24.39,0,0,1,56.2,56.56l.09-31.81a24.43,24.43,0,0,0,3.16,11.32q3.46,6.56,12,16.22c5.7,6.45,9,11.31,9.82,14.62A6.38,6.38,0,0,1,81.44,68.33Z"/><path class="cls-2" d="M113.59,71.53l-.09,31.81c0,7-4.51,13.1-13.41,18.27-10.2,5.93-22,8.32-35.52,7.2s-26.8-5.44-39.86-13Q11,107.94,4.85,98.63.49,92.08.5,86L.59,54.2q0,6.07,4.35,12.62Q11.11,76.14,24.8,84,44.39,95.33,64.66,97c13.56,1.12,25.32-1.27,35.52-7.19C109.08,84.63,113.57,78.55,113.59,71.53Z"/><polygon class="cls-2" points="241.7 94.15 241.61 125.96 205.94 105.36 206.03 73.55 241.7 94.15"/><polygon class="cls-2" points="302.19 129.07 302.11 160.88 265.93 140 266.02 108.19 302.19 129.07"/><polygon class="cls-3" points="321.75 117.71 321.66 149.52 302.11 160.88 302.19 129.07 321.75 117.71"/><polygon class="cls-2" points="168.3 164.98 168.21 196.79 143.89 182.75 143.98 150.94 168.3 164.98"/><polygon class="cls-3" points="266.02 108.19 265.93 140 168.21 196.79 168.3 164.98 266.02 108.19"/><polygon class="cls-3" points="370.31 168.4 370.22 200.21 342.25 216.46 342.34 184.66 370.31 168.4"/><polygon class="cls-2" points="424.97 199.96 424.88 231.77 370.22 200.21 370.31 168.4 424.97 199.96"/><polygon class="cls-3" points="444.53 188.6 444.44 220.41 424.88 231.77 424.97 199.96 444.53 188.6"/><polygon class="cls-3" points="323.43 195.65 323.34 227.45 291.9 245.72 291.99 213.91 323.43 195.65"/><polygon class="cls-2" points="370.12 222.6 370.03 254.41 323.34 227.45 323.43 195.65 370.12 222.6"/><polygon class="cls-3" points="389.03 211.61 388.94 243.42 370.03 254.41 370.12 222.6 389.03 211.61"/><polygon class="cls-3" points="346.81 245.56 346.71 277.37 327.31 288.64 327.4 256.84 346.81 245.56"/><polygon class="cls-2" points="327.4 256.84 327.31 288.64 248.18 242.96 248.27 211.15 327.4 256.84"/><polygon class="cls-3" points="513.19 228.24 513.1 260.05 415.23 316.92 415.32 285.12 513.19 228.24"/><polygon class="cls-3" points="466.99 314.95 466.9 346.76 447.5 358.04 447.59 326.23 466.99 314.95"/><polygon class="cls-2" points="447.59 326.23 447.5 358.04 371.51 314.16 371.6 282.35 447.59 326.23"/><polygon class="cls-3" points="633.03 297.43 632.94 329.24 535.07 386.11 535.16 354.3 633.03 297.43"/><polygon class="cls-3" points="586.83 384.14 586.74 415.95 567.33 427.22 567.42 395.41 586.83 384.14"/><polygon class="cls-2" points="567.42 395.41 567.33 427.22 491.35 383.35 491.44 351.54 567.42 395.41"/><polygon class="cls-3" points="745.68 396.82 745.6 428.63 686.99 445.66 687.08 413.85 745.68 396.82"/><polygon class="cls-2" points="660.94 421.42 660.85 453.23 628.62 462.61 628.71 430.8 660.94 421.42"/><polygon class="cls-2" points="628.71 430.8 628.62 462.61 602.71 447.65 602.8 415.84 628.71 430.8"/><polygon class="cls-2" points="703.65 446.07 703.56 477.88 660.85 453.23 660.94 421.42 703.65 446.07"/><polygon class="cls-2" points="713.52 479.76 713.43 511.57 687.57 496.64 687.66 464.83 713.52 479.76"/><polygon class="cls-3" points="786.6 386.09 786.51 417.9 713.43 511.57 713.52 479.76 786.6 386.09"/><path class="cls-4" d="M144.75,13.63c8.47,4.89,14.41,10.09,18,15.67s4.38,11,2.47,16.35-6.3,10-13.38,14.12l-24.31-14c5.39-3.13,7.86-6.53,7.44-10.27s-3.72-7.31-9.9-10.87a41.23,41.23,0,0,0-17.61-5.81c-5.77-.46-10.73.51-14.79,2.87-3.81,2.22-5.13,5.18-3.82,8.92S93.44,39,98.73,44.64c9.65,10.38,14.61,19.22,14.85,26.41s-4.29,13.46-13.4,18.76C90,95.73,78.22,98.12,64.66,97S37.86,91.56,24.8,84Q11.12,76.13,4.94,66.82C.78,60.58-.4,54.68,1.41,49.07S8,38.45,15.53,34.05L40,48.15q-19.46,11.31,4,24.77A41.5,41.5,0,0,0,61,78.7a23.87,23.87,0,0,0,14.58-2.88c4.61-2.67,6.48-5.61,5.72-8.91s-4.12-8.17-9.82-14.62-9.7-11.85-12-16.22Q50.11,18.2,68.38,7.56A53.44,53.44,0,0,1,90.79.82,82.91,82.91,0,0,1,117.87,3,98.57,98.57,0,0,1,144.75,13.63Z"/><polygon class="cls-4" points="321.75 117.71 302.19 129.07 266.02 108.19 168.3 164.98 143.98 150.94 241.7 94.15 206.03 73.55 225.58 62.19 321.75 117.71"/><polygon class="cls-4" points="444.53 188.6 424.97 199.96 370.31 168.4 342.34 184.66 389.03 211.61 370.12 222.6 323.43 195.65 291.99 213.91 346.81 245.56 327.4 256.84 248.27 211.15 365.55 143 444.53 188.6"/><polygon class="cls-4" points="513.19 228.24 415.32 285.12 466.99 314.95 447.59 326.23 371.6 282.35 488.87 214.2 513.19 228.24"/><polygon class="cls-4" points="633.03 297.43 535.16 354.3 586.83 384.14 567.42 395.41 491.44 351.54 608.71 283.39 633.03 297.43"/><path class="cls-4" d="M786.6,386.09l-73.08,93.67-25.86-14.93,16-18.76-42.71-24.65-32.23,9.38-25.91-15,161.28-42.75Zm-99.52,27.76,29.54,17.06,29.07-34.09-58.61,17"/></g></g></svg>