<svg xmlns="http://www.w3.org/2000/svg" viewBox="0 0 102.85 65.68"><defs><style>.cls-1{fill:#301d22;}.cls-1,.cls-2,.cls-3,.cls-4{stroke:#000;stroke-miterlimit:10;stroke-width:0.1px;}.cls-2{fill:#a8bdc1;}.cls-3{fill:#769093;}.cls-4{fill:#f7b103;}</style></defs><title>logga4(isometric)</title><g id="Layer_3" data-name="Layer 3"><path class="cls-1" d="M115.07,111.12a6.52,6.52,0,0,1,2.31,2,2.32,2.32,0,0,1,.32,2.09A3.6,3.6,0,0,1,116,117l-3.11-1.8c.69-.4,1-.83.95-1.31s-.48-.94-1.27-1.4a5.19,5.19,0,0,0-2.26-.74,3.13,3.13,0,0,0-1.89.37.88.88,0,0,0-.49,1.14,5.81,5.81,0,0,0,1.26,1.8c1.24,1.33,1.88,2.46,1.91,3.39a2.8,2.8,0,0,1-1.72,2.4,7.6,7.6,0,0,1-4.55.92,12.19,12.19,0,0,1-5.11-1.66,7.34,7.34,0,0,1-2.54-2.21,2.55,2.55,0,0,1-.46-2.27,3.7,3.7,0,0,1,1.81-1.92l3.13,1.8c-1.66,1-1.49,2,.51,3.18a5.48,5.48,0,0,0,2.19.74,3.13,3.13,0,0,0,1.87-.37c.59-.34.83-.72.73-1.14a5.61,5.61,0,0,0-1.26-1.88,11.52,11.52,0,0,1-1.54-2.08q-1.2-2.28,1.14-3.65a7,7,0,0,1,2.88-.86,10.45,10.45,0,0,1,3.47.27A12.89,12.89,0,0,1,115.07,111.12Z" transform="translate(-94.54 -105.39)"/><polygon class="cls-1" points="43.21 19.07 40.71 20.52 36.07 17.85 23.55 25.13 20.43 23.33 32.96 16.05 28.39 13.41 30.89 11.95 43.21 19.07"/><polygon class="cls-1" points="58.94 28.15 56.44 29.61 49.44 25.56 45.85 27.65 51.83 31.1 49.41 32.51 43.43 29.05 39.4 31.39 46.42 35.45 43.94 36.9 33.8 31.04 48.83 22.31 58.94 28.15"/><polygon class="cls-1" points="67.74 33.23 55.2 40.52 61.82 44.34 59.34 45.79 49.6 40.16 64.63 31.43 67.74 33.23"/><polygon class="cls-1" points="83.1 42.1 70.56 49.38 77.18 53.21 74.69 54.65 64.95 49.03 79.98 40.3 83.1 42.1"/><path class="cls-1" d="M197.31,158.84l-9.36,12-3.31-1.92,2-2.4-5.47-3.16-4.13,1.2-3.32-1.91,20.67-5.48Zm-12.75,3.56,3.79,2.19,3.72-4.37-7.51,2.18" transform="translate(-94.54 -105.39)"/><path class="cls-1" d="M115,111.12a6.52,6.52,0,0,1,2.31,2,2.32,2.32,0,0,1,.32,2.09,3.6,3.6,0,0,1-1.72,1.81l-3.11-1.8c.69-.4,1-.83,1-1.31s-.48-.94-1.27-1.4a5.19,5.19,0,0,0-2.26-.74,3.13,3.13,0,0,0-1.89.37.88.88,0,0,0-.49,1.14,5.81,5.81,0,0,0,1.26,1.8c1.24,1.33,1.88,2.46,1.91,3.39a2.8,2.8,0,0,1-1.72,2.4,7.6,7.6,0,0,1-4.55.92,12.19,12.19,0,0,1-5.11-1.66,7.34,7.34,0,0,1-2.54-2.21,2.55,2.55,0,0,1-.46-2.27,3.7,3.7,0,0,1,1.81-1.92l3.13,1.8c-1.66,1-1.49,2,.51,3.18a5.48,5.48,0,0,0,2.19.74,3.13,3.13,0,0,0,1.87-.37c.59-.34.83-.72.73-1.14a5.61,5.61,0,0,0-1.26-1.88A11.52,11.52,0,0,1,104,114q-1.2-2.28,1.14-3.65a7,7,0,0,1,2.88-.86,10.45,10.45,0,0,1,3.47.27A12.89,12.89,0,0,1,115,111.12Z" transform="translate(-94.54 -105.39)"/><polygon class="cls-1" points="43.11 19.07 40.61 20.52 35.97 17.85 23.45 25.13 20.34 23.33 32.86 16.05 28.29 13.41 30.79 11.95 43.11 19.07"/><polygon class="cls-1" points="58.84 28.15 56.34 29.61 49.34 25.56 45.75 27.65 51.73 31.1 49.31 32.51 43.33 29.05 39.3 31.39 46.32 35.45 43.84 36.9 33.7 31.04 48.73 22.31 58.84 28.15"/><polygon class="cls-1" points="67.64 33.23 55.1 40.52 61.72 44.34 59.24 45.79 49.5 40.16 64.53 31.43 67.64 33.23"/><polygon class="cls-1" points="83 42.1 70.46 49.38 77.08 53.21 74.59 54.65 64.86 49.03 79.88 40.3 83 42.1"/><path class="cls-1" d="M197.21,158.84l-9.36,12-3.31-1.92,2-2.4-5.47-3.16-4.13,1.2-3.32-1.91,20.67-5.48Zm-12.75,3.56,3.79,2.19,3.72-4.37-7.51,2.18" transform="translate(-94.54 -105.39)"/><path class="cls-1" d="M114.87,111.12a6.52,6.52,0,0,1,2.31,2,2.32,2.32,0,0,1,.32,2.09,3.6,3.6,0,0,1-1.72,1.81l-3.11-1.8c.69-.4,1-.83,1-1.31s-.48-.94-1.27-1.4a5.19,5.19,0,0,0-2.26-.74,3.13,3.13,0,0,0-1.89.37.88.88,0,0,0-.49,1.14,5.81,5.81,0,0,0,1.26,1.8c1.24,1.33,1.88,2.46,1.91,3.39a2.8,2.8,0,0,1-1.72,2.4,7.6,7.6,0,0,1-4.55.92,12.19,12.19,0,0,1-5.11-1.66A7.34,7.34,0,0,1,97,117.93a2.55,2.55,0,0,1-.46-2.27,3.7,3.7,0,0,1,1.81-1.92l3.13,1.8c-1.66,1-1.49,2,.51,3.18a5.48,5.48,0,0,0,2.19.74,3.13,3.13,0,0,0,1.87-.37c.59-.34.83-.72.73-1.14a5.61,5.61,0,0,0-1.26-1.88,11.52,11.52,0,0,1-1.54-2.08q-1.2-2.28,1.14-3.65a7,7,0,0,1,2.88-.86,10.45,10.45,0,0,1,3.47.27A12.89,12.89,0,0,1,114.87,111.12Z" transform="translate(-94.54 -105.39)"/><polygon class="cls-1" points="43.01 19.07 40.51 20.52 35.87 17.85 23.35 25.13 20.23 23.33 32.76 16.05 28.18 13.41 30.69 11.95 43.01 19.07"/><polygon class="cls-1" points="58.74 28.15 56.24 29.61 49.23 25.56 45.65 27.65 51.63 31.1 49.21 32.51 43.23 29.05 39.2 31.39 46.22 35.45 43.74 36.9 33.6 31.04 48.63 22.31 58.74 28.15"/><polygon class="cls-1" points="67.54 33.23 55 40.52 61.62 44.34 59.14 45.79 49.4 40.16 64.43 31.43 67.54 33.23"/><polygon class="cls-1" points="82.9 42.1 70.36 49.38 76.98 53.21 74.49 54.65 64.75 49.03 79.78 40.3 82.9 42.1"/><path class="cls-1" d="M197.11,158.84l-9.36,12-3.31-1.92,2-2.4L181,163.37l-4.13,1.2-3.32-1.91,20.67-5.48Zm-12.75,3.56,3.79,2.19,3.72-4.37-7.51,2.18" transform="translate(-94.54 -105.39)"/><path class="cls-1" d="M114.77,111.12a6.52,6.52,0,0,1,2.31,2,2.32,2.32,0,0,1,.32,2.09,3.6,3.6,0,0,1-1.72,1.81l-3.11-1.8c.69-.4,1-.83,1-1.31s-.48-.94-1.27-1.4a5.19,5.19,0,0,0-2.26-.74,3.13,3.13,0,0,0-1.89.37.88.88,0,0,0-.49,1.14,5.81,5.81,0,0,0,1.26,1.8c1.24,1.33,1.88,2.46,1.91,3.39a2.8,2.8,0,0,1-1.72,2.4,7.6,7.6,0,0,1-4.55.92,12.19,12.19,0,0,1-5.11-1.66,7.34,7.34,0,0,1-2.54-2.21,2.55,2.55,0,0,1-.46-2.27,3.7,3.7,0,0,1,1.81-1.92l3.13,1.8c-1.66,1-1.49,2,.51,3.18a5.48,5.48,0,0,0,2.19.74,3.13,3.13,0,0,0,1.87-.37c.59-.34.83-.72.73-1.14a5.61,5.61,0,0,0-1.26-1.88,11.52,11.52,0,0,1-1.54-2.08q-1.2-2.28,1.14-3.65a7,7,0,0,1,2.88-.86,10.45,10.45,0,0,1,3.47.27A12.89,12.89,0,0,1,114.77,111.12Z" transform="translate(-94.54 -105.39)"/><polygon class="cls-1" points="42.91 19.07 40.41 20.52 35.77 17.85 23.25 25.13 20.14 23.33 32.66 16.05 28.09 13.41 30.59 11.95 42.91 19.07"/><polygon class="cls-1" points="58.64 28.15 56.14 29.61 49.13 25.56 45.55 27.65 51.53 31.1 49.11 32.51 43.13 29.05 39.1 31.39 46.12 35.45 43.64 36.9 33.5 31.04 48.52 22.31 58.64 28.15"/><polygon class="cls-1" points="67.44 33.23 54.9 40.52 61.52 44.34 59.04 45.79 49.3 40.16 64.33 31.43 67.44 33.23"/><polygon class="cls-1" points="82.8 42.1 70.26 49.38 76.88 53.21 74.39 54.65 64.66 49.03 79.68 40.3 82.8 42.1"/><path class="cls-1" d="M197,158.84l-9.36,12-3.31-1.92,2-2.4-5.47-3.16-4.13,1.2-3.32-1.91,20.67-5.48Zm-12.75,3.56,3.79,2.19,3.72-4.37-7.51,2.18" transform="translate(-94.54 -105.39)"/><path class="cls-1" d="M114.67,111.12a6.52,6.52,0,0,1,2.31,2,2.32,2.32,0,0,1,.32,2.09,3.6,3.6,0,0,1-1.72,1.81l-3.11-1.8c.69-.4,1-.83,1-1.31s-.48-.94-1.27-1.4a5.19,5.19,0,0,0-2.26-.74,3.13,3.13,0,0,0-1.89.37.88.88,0,0,0-.49,1.14,5.81,5.81,0,0,0,1.26,1.8c1.24,1.33,1.88,2.46,1.91,3.39a2.8,2.8,0,0,1-1.72,2.4,7.6,7.6,0,0,1-4.55.92,12.19,12.19,0,0,1-5.11-1.66,7.34,7.34,0,0,1-2.54-2.21,2.55,2.55,0,0,1-.46-2.27,3.7,3.7,0,0,1,1.81-1.92l3.13,1.8c-1.66,1-1.49,2,.51,3.18a5.48,5.48,0,0,0,2.19.74,3.13,3.13,0,0,0,1.87-.37c.59-.34.83-.72.73-1.14a5.61,5.61,0,0,0-1.26-1.88,11.52,11.52,0,0,1-1.54-2.08q-1.2-2.28,1.14-3.65a7,7,0,0,1,2.88-.86,10.45,10.45,0,0,1,3.47.27A12.89,12.89,0,0,1,114.67,111.12Z" transform="translate(-94.54 -105.39)"/><polygon class="cls-1" points="42.81 19.07 40.31 20.52 35.67 17.85 23.15 25.13 20.04 23.33 32.56 16.05 27.98 13.41 30.49 11.95 42.81 19.07"/><polygon class="cls-1" points="58.54 28.15 56.04 29.61 49.03 25.56 45.45 27.65 51.43 31.1 49.01 32.51 43.03 29.05 39 31.39 46.02 35.45 43.54 36.9 33.4 31.04 48.42 22.31 58.54 28.15"/><polygon class="cls-1" points="67.34 33.23 54.8 40.52 61.42 44.34 58.94 45.79 49.2 40.16 64.23 31.43 67.34 33.23"/><polygon class="cls-1" points="82.7 42.1 70.16 49.38 76.78 53.21 74.29 54.65 64.56 49.03 79.58 40.3 82.7 42.1"/><path class="cls-1" d="M196.91,158.84l-9.36,12-3.31-1.92,2-2.4-5.47-3.16-4.13,1.2-3.32-1.91L194,157.18Zm-12.75,3.56,3.79,2.19,3.72-4.37-7.51,2.18" transform="translate(-94.54 -105.39)"/><path class="cls-1" d="M114.57,111.12a6.52,6.52,0,0,1,2.31,2,2.32,2.32,0,0,1,.32,2.09,3.6,3.6,0,0,1-1.72,1.81l-3.11-1.8c.69-.4,1-.83.95-1.31s-.48-.94-1.27-1.4a5.19,5.19,0,0,0-2.26-.74,3.13,3.13,0,0,0-1.89.37.88.88,0,0,0-.49,1.14,5.81,5.81,0,0,0,1.26,1.8c1.24,1.33,1.88,2.46,1.91,3.39a2.8,2.8,0,0,1-1.72,2.4,7.6,7.6,0,0,1-4.55.92,12.19,12.19,0,0,1-5.11-1.66,7.34,7.34,0,0,1-2.54-2.21,2.55,2.55,0,0,1-.46-2.27A3.7,3.7,0,0,1,98,113.74l3.13,1.8c-1.66,1-1.49,2,.51,3.18a5.48,5.48,0,0,0,2.19.74,3.13,3.13,0,0,0,1.87-.37c.59-.34.83-.72.73-1.14a5.61,5.61,0,0,0-1.26-1.88,11.52,11.52,0,0,1-1.54-2.08q-1.2-2.28,1.14-3.65a7,7,0,0,1,2.88-.86,10.45,10.45,0,0,1,3.47.27A12.89,12.89,0,0,1,114.57,111.12Z" transform="translate(-94.54 -105.39)"/><polygon class="cls-1" points="42.71 19.07 40.21 20.52 35.57 17.85 23.05 25.13 19.93 23.33 32.46 16.05 27.89 13.41 30.39 11.95 42.71 19.07"/><polygon class="cls-1" points="58.44 28.15 55.94 29.61 48.94 25.56 45.35 27.65 51.33 31.1 48.91 32.51 42.93 29.05 38.9 31.39 45.92 35.45 43.44 36.9 33.3 31.04 48.33 22.31 58.44 28.15"/><polygon class="cls-1" points="67.24 33.23 54.7 40.52 61.32 44.34 58.84 45.79 49.1 40.16 64.13 31.43 67.24 33.23"/><polygon class="cls-1" points="82.6 42.1 70.06 49.38 76.68 53.21 74.19 54.65 64.45 49.03 79.48 40.3 82.6 42.1"/><path class="cls-1" d="M196.81,158.84l-9.36,12-3.31-1.92,2-2.4-5.47-3.16-4.13,1.2-3.32-1.91,20.67-5.48Zm-12.75,3.56,3.79,2.19,3.72-4.37-7.51,2.18" transform="translate(-94.54 -105.39)"/><path class="cls-1" d="M114.47,111.12a6.52,6.52,0,0,1,2.31,2,2.32,2.32,0,0,1,.32,2.09,3.6,3.6,0,0,1-1.72,1.81l-3.11-1.8c.69-.4,1-.83,1-1.31s-.48-.94-1.27-1.4a5.19,5.19,0,0,0-2.26-.74,3.13,3.13,0,0,0-1.89.37.88.88,0,0,0-.49,1.14,5.81,5.81,0,0,0,1.26,1.8c1.24,1.33,1.88,2.46,1.91,3.39a2.8,2.8,0,0,1-1.72,2.4,7.6,7.6,0,0,1-4.55.92,12.19,12.19,0,0,1-5.11-1.66,7.34,7.34,0,0,1-2.54-2.21,2.55,2.55,0,0,1-.46-2.27,3.7,3.7,0,0,1,1.81-1.92l3.13,1.8c-1.66,1-1.49,2,.51,3.18a5.48,5.48,0,0,0,2.19.74,3.13,3.13,0,0,0,1.87-.37c.59-.34.83-.72.73-1.14a5.61,5.61,0,0,0-1.26-1.88,11.52,11.52,0,0,1-1.54-2.08q-1.2-2.28,1.14-3.65a7,7,0,0,1,2.88-.86,10.45,10.45,0,0,1,3.47.27A12.89,12.89,0,0,1,114.47,111.12Z" transform="translate(-94.54 -105.39)"/><polygon class="cls-1" points="42.61 19.07 40.11 20.52 35.47 17.85 22.95 25.13 19.84 23.33 32.36 16.05 27.79 13.41 30.29 11.95 42.61 19.07"/><polygon class="cls-1" points="58.34 28.15 55.84 29.61 48.84 25.56 45.25 27.65 51.23 31.1 48.81 32.51 42.83 29.05 38.8 31.39 45.82 35.45 43.34 36.9 33.2 31.04 48.23 22.31 58.34 28.15"/><polygon class="cls-1" points="67.14 33.23 54.6 40.52 61.22 44.34 58.74 45.79 49 40.16 64.03 31.43 67.14 33.23"/><polygon class="cls-1" points="82.5 42.1 69.96 49.38 76.58 53.21 74.09 54.65 64.36 49.03 79.38 40.3 82.5 42.1"/><path class="cls-1" d="M196.71,158.84l-9.36,12L184,168.93l2-2.4-5.47-3.16-4.13,1.2-3.32-1.91,20.67-5.48ZM184,162.4l3.79,2.19,3.72-4.37L184,162.4" transform="translate(-94.54 -105.39)"/><path class="cls-1" d="M114.37,111.12a6.52,6.52,0,0,1,2.31,2,2.32,2.32,0,0,1,.32,2.09,3.6,3.6,0,0,1-1.72,1.81l-3.11-1.8c.69-.4,1-.83,1-1.31s-.48-.94-1.27-1.4a5.19,5.19,0,0,0-2.26-.74,3.13,3.13,0,0,0-1.89.37.88.88,0,0,0-.49,1.14,5.81,5.81,0,0,0,1.26,1.8c1.24,1.33,1.88,2.46,1.91,3.39a2.8,2.8,0,0,1-1.72,2.4,7.6,7.6,0,0,1-4.55.92A12.19,12.19,0,0,1,99,120.14a7.34,7.34,0,0,1-2.54-2.21,2.55,2.55,0,0,1-.46-2.27,3.7,3.7,0,0,1,1.81-1.92l3.13,1.8c-1.66,1-1.49,2,.51,3.18a5.48,5.48,0,0,0,2.19.74,3.13,3.13,0,0,0,1.87-.37c.59-.34.83-.72.73-1.14a5.61,5.61,0,0,0-1.26-1.88,11.52,11.52,0,0,1-1.54-2.08q-1.2-2.28,1.14-3.65a7,7,0,0,1,2.88-.86,10.45,10.45,0,0,1,3.47.27A12.89,12.89,0,0,1,114.37,111.12Z" transform="translate(-94.54 -105.39)"/><polygon class="cls-1" points="42.51 19.07 40.01 20.52 35.37 17.85 22.85 25.13 19.73 23.33 32.26 16.05 27.68 13.41 30.19 11.95 42.51 19.07"/><polygon class="cls-1" points="58.24 28.15 55.74 29.61 48.73 25.56 45.15 27.65 51.13 31.1 48.71 32.51 42.73 29.05 38.7 31.39 45.72 35.45 43.24 36.9 33.1 31.04 48.13 22.31 58.24 28.15"/><polygon class="cls-1" points="67.04 33.23 54.5 40.52 61.12 44.34 58.64 45.79 48.9 40.16 63.93 31.43 67.04 33.23"/><polygon class="cls-1" points="82.4 42.1 69.86 49.38 76.48 53.21 73.99 54.65 64.25 49.03 79.28 40.3 82.4 42.1"/><path class="cls-1" d="M196.61,158.84l-9.36,12-3.31-1.92,2-2.4-5.47-3.16-4.13,1.2-3.32-1.91,20.67-5.48Zm-12.75,3.56,3.79,2.19,3.72-4.37-7.51,2.18" transform="translate(-94.54 -105.39)"/><path class="cls-1" d="M114.27,111.12a6.52,6.52,0,0,1,2.31,2,2.32,2.32,0,0,1,.32,2.09,3.6,3.6,0,0,1-1.72,1.81l-3.11-1.8c.69-.4,1-.83,1-1.31s-.48-.94-1.27-1.4a5.19,5.19,0,0,0-2.26-.74,3.13,3.13,0,0,0-1.89.37.88.88,0,0,0-.49,1.14,5.81,5.81,0,0,0,1.26,1.8c1.24,1.33,1.88,2.46,1.91,3.39a2.8,2.8,0,0,1-1.72,2.4,7.6,7.6,0,0,1-4.55.92,12.19,12.19,0,0,1-5.11-1.66,7.34,7.34,0,0,1-2.54-2.21,2.55,2.55,0,0,1-.46-2.27,3.7,3.7,0,0,1,1.81-1.92l3.13,1.8c-1.66,1-1.49,2,.51,3.18a5.48,5.48,0,0,0,2.19.74,3.13,3.13,0,0,0,1.87-.37c.59-.34.83-.72.73-1.14a5.61,5.61,0,0,0-1.26-1.88,11.52,11.52,0,0,1-1.54-2.08q-1.2-2.28,1.14-3.65a7,7,0,0,1,2.88-.86,10.45,10.45,0,0,1,3.47.27A12.89,12.89,0,0,1,114.27,111.12Z" transform="translate(-94.54 -105.39)"/><polygon class="cls-1" points="42.41 19.07 39.91 20.52 35.27 17.85 22.75 25.13 19.64 23.33 32.16 16.05 27.59 13.41 30.09 11.95 42.41 19.07"/><polygon class="cls-1" points="58.14 28.15 55.64 29.61 48.63 25.56 45.05 27.65 51.03 31.1 48.61 32.51 42.63 29.05 38.6 31.39 45.62 35.45 43.14 36.9 33 31.04 48.02 22.31 58.14 28.15"/><polygon class="cls-1" points="66.94 33.23 54.4 40.52 61.02 44.34 58.54 45.79 48.8 40.16 63.83 31.43 66.94 33.23"/><polygon class="cls-1" points="82.3 42.1 69.76 49.38 76.38 53.21 73.89 54.65 64.16 49.03 79.18 40.3 82.3 42.1"/><path class="cls-1" d="M196.51,158.84l-9.36,12-3.31-1.92,2-2.4-5.47-3.16-4.13,1.2L173,162.66l20.67-5.48Zm-12.75,3.56,3.79,2.19,3.72-4.37-7.51,2.18" transform="translate(-94.54 -105.39)"/><path class="cls-1" d="M114.17,111.12a6.52,6.52,0,0,1,2.31,2,2.32,2.32,0,0,1,.32,2.09,3.6,3.6,0,0,1-1.72,1.81l-3.11-1.8c.69-.4,1-.83,1-1.31s-.48-.94-1.27-1.4a5.19,5.19,0,0,0-2.26-.74,3.13,3.13,0,0,0-1.89.37.88.88,0,0,0-.49,1.14,5.81,5.81,0,0,0,1.26,1.8c1.24,1.33,1.88,2.46,1.91,3.39a2.8,2.8,0,0,1-1.72,2.4,7.6,7.6,0,0,1-4.55.92,12.19,12.19,0,0,1-5.11-1.66,7.34,7.34,0,0,1-2.54-2.21,2.55,2.55,0,0,1-.46-2.27,3.7,3.7,0,0,1,1.81-1.92l3.13,1.8c-1.66,1-1.49,2,.51,3.18a5.48,5.48,0,0,0,2.19.74,3.13,3.13,0,0,0,1.87-.37c.59-.34.83-.72.73-1.14a5.61,5.61,0,0,0-1.26-1.88,11.52,11.52,0,0,1-1.54-2.08q-1.2-2.28,1.14-3.65a7,7,0,0,1,2.88-.86,10.45,10.45,0,0,1,3.47.27A12.89,12.89,0,0,1,114.17,111.12Z" transform="translate(-94.54 -105.39)"/><polygon class="cls-1" points="42.31 19.07 39.81 20.52 35.17 17.85 22.65 25.13 19.54 23.33 32.06 16.05 27.48 13.41 29.99 11.95 42.31 19.07"/><polygon class="cls-1" points="58.04 28.15 55.54 29.61 48.53 25.56 44.95 27.65 50.93 31.1 48.51 32.51 42.53 29.05 38.5 31.39 45.52 35.45 43.04 36.9 32.9 31.04 47.92 22.31 58.04 28.15"/><polygon class="cls-1" points="66.84 33.23 54.3 40.52 60.92 44.34 58.44 45.79 48.7 40.16 63.73 31.43 66.84 33.23"/><polygon class="cls-1" points="82.2 42.1 69.66 49.38 76.28 53.21 73.79 54.65 64.06 49.03 79.08 40.3 82.2 42.1"/><path class="cls-1" d="M196.41,158.84l-9.36,12-3.31-1.92,2-2.4-5.47-3.16-4.13,1.2-3.32-1.91,20.67-5.48Zm-12.75,3.56,3.79,2.19,3.72-4.37-7.51,2.18" transform="translate(-94.54 -105.39)"/><path class="cls-1" d="M114.07,111.12a6.52,6.52,0,0,1,2.31,2,2.32,2.32,0,0,1,.32,2.09A3.6,3.6,0,0,1,115,117l-3.11-1.8c.69-.4,1-.83.95-1.31s-.48-.94-1.27-1.4a5.19,5.19,0,0,0-2.26-.74,3.13,3.13,0,0,0-1.89.37.88.88,0,0,0-.49,1.14,5.81,5.81,0,0,0,1.26,1.8c1.24,1.33,1.88,2.46,1.91,3.39a2.8,2.8,0,0,1-1.72,2.4,7.6,7.6,0,0,1-4.55.92,12.19,12.19,0,0,1-5.11-1.66,7.34,7.34,0,0,1-2.54-2.21,2.55,2.55,0,0,1-.46-2.27,3.7,3.7,0,0,1,1.81-1.92l3.13,1.8c-1.66,1-1.49,2,.51,3.18a5.48,5.48,0,0,0,2.19.74,3.13,3.13,0,0,0,1.87-.37c.59-.34.83-.72.73-1.14a5.61,5.61,0,0,0-1.26-1.88,11.52,11.52,0,0,1-1.54-2.08q-1.2-2.28,1.14-3.65a7,7,0,0,1,2.88-.86,10.45,10.45,0,0,1,3.47.27A12.89,12.89,0,0,1,114.07,111.12Z" transform="translate(-94.54 -105.39)"/><polygon class="cls-1" points="42.21 19.07 39.71 20.52 35.07 17.85 22.55 25.13 19.43 23.33 31.96 16.05 27.39 13.41 29.89 11.95 42.21 19.07"/><polygon class="cls-1" points="57.94 28.15 55.44 29.61 48.44 25.56 44.85 27.65 50.83 31.1 48.41 32.51 42.43 29.05 38.4 31.39 45.42 35.45 42.94 36.9 32.8 31.04 47.83 22.31 57.94 28.15"/><polygon class="cls-1" points="66.74 33.23 54.2 40.52 60.82 44.34 58.34 45.79 48.6 40.16 63.63 31.43 66.74 33.23"/><polygon class="cls-1" points="82.1 42.1 69.56 49.38 76.18 53.21 73.69 54.65 63.95 49.03 78.98 40.3 82.1 42.1"/><path class="cls-1" d="M196.31,158.84l-9.36,12-3.31-1.92,2-2.4-5.47-3.16-4.13,1.2-3.32-1.91,20.67-5.48Zm-12.75,3.56,3.79,2.19,3.72-4.37-7.51,2.18" transform="translate(-94.54 -105.39)"/><path class="cls-1" d="M114,111.12a6.52,6.52,0,0,1,2.31,2,2.32,2.32,0,0,1,.32,2.09,3.6,3.6,0,0,1-1.72,1.81l-3.11-1.8c.69-.4,1-.83,1-1.31s-.48-.94-1.27-1.4a5.19,5.19,0,0,0-2.26-.74,3.13,3.13,0,0,0-1.89.37.88.88,0,0,0-.49,1.14,5.81,5.81,0,0,0,1.26,1.8c1.24,1.33,1.88,2.46,1.91,3.39a2.8,2.8,0,0,1-1.72,2.4,7.6,7.6,0,0,1-4.55.92,12.19,12.19,0,0,1-5.11-1.66,7.34,7.34,0,0,1-2.54-2.21,2.55,2.55,0,0,1-.46-2.27,3.7,3.7,0,0,1,1.81-1.92l3.13,1.8c-1.66,1-1.49,2,.51,3.18a5.48,5.48,0,0,0,2.19.74,3.13,3.13,0,0,0,1.87-.37c.59-.34.83-.72.73-1.14a5.61,5.61,0,0,0-1.26-1.88A11.52,11.52,0,0,1,103,114q-1.2-2.28,1.14-3.65a7,7,0,0,1,2.88-.86,10.45,10.45,0,0,1,3.47.27A12.89,12.89,0,0,1,114,111.12Z" transform="translate(-94.54 -105.39)"/><polygon class="cls-1" points="42.11 19.07 39.61 20.52 34.97 17.85 22.45 25.13 19.34 23.33 31.86 16.05 27.29 13.41 29.79 11.95 42.11 19.07"/><polygon class="cls-1" points="57.84 28.15 55.34 29.61 48.34 25.56 44.75 27.65 50.73 31.1 48.31 32.51 42.33 29.05 38.3 31.39 45.32 35.45 42.84 36.9 32.7 31.04 47.73 22.31 57.84 28.15"/><polygon class="cls-1" points="66.64 33.23 54.1 40.52 60.72 44.34 58.24 45.79 48.5 40.16 63.53 31.43 66.64 33.23"/><polygon class="cls-1" points="82 42.1 69.46 49.38 76.08 53.21 73.59 54.65 63.85 49.03 78.88 40.3 82 42.1"/><path class="cls-1" d="M196.21,158.84l-9.36,12-3.31-1.92,2-2.4-5.47-3.16-4.13,1.2-3.32-1.91,20.67-5.48Zm-12.75,3.56,3.79,2.19,3.72-4.37-7.51,2.18" transform="translate(-94.54 -105.39)"/><path class="cls-1" d="M113.87,111.12a6.52,6.52,0,0,1,2.31,2,2.32,2.32,0,0,1,.32,2.09,3.6,3.6,0,0,1-1.72,1.81l-3.11-1.8c.69-.4,1-.83,1-1.31s-.48-.94-1.27-1.4a5.19,5.19,0,0,0-2.26-.74,3.13,3.13,0,0,0-1.89.37.88.88,0,0,0-.49,1.14,5.81,5.81,0,0,0,1.26,1.8c1.24,1.33,1.88,2.46,1.91,3.39a2.8,2.8,0,0,1-1.72,2.4,7.6,7.6,0,0,1-4.55.92,12.19,12.19,0,0,1-5.11-1.66A7.34,7.34,0,0,1,96,117.93a2.55,2.55,0,0,1-.46-2.27,3.7,3.7,0,0,1,1.81-1.92l3.13,1.8c-1.66,1-1.49,2,.51,3.18a5.48,5.48,0,0,0,2.19.74,3.13,3.13,0,0,0,1.87-.37c.59-.34.83-.72.73-1.14a5.61,5.61,0,0,0-1.26-1.88,11.52,11.52,0,0,1-1.54-2.08q-1.2-2.28,1.14-3.65a7,7,0,0,1,2.88-.86,10.45,10.45,0,0,1,3.47.27A12.89,12.89,0,0,1,113.87,111.12Z" transform="translate(-94.54 -105.39)"/><polygon class="cls-1" points="42.01 19.07 39.51 20.52 34.87 17.85 22.35 25.13 19.23 23.33 31.76 16.05 27.18 13.41 29.69 11.95 42.01 19.07"/><polygon class="cls-1" points="57.74 28.15 55.24 29.61 48.23 25.56 44.65 27.65 50.63 31.1 48.21 32.51 42.23 29.05 38.2 31.39 45.22 35.45 42.74 36.9 32.6 31.04 47.63 22.31 57.74 28.15"/><polygon class="cls-1" points="66.54 33.23 54 40.52 60.62 44.34 58.14 45.79 48.4 40.16 63.43 31.43 66.54 33.23"/><polygon class="cls-1" points="81.9 42.1 69.36 49.38 75.98 53.21 73.49 54.65 63.76 49.03 78.78 40.3 81.9 42.1"/><path class="cls-1" d="M196.11,158.84l-9.36,12-3.31-1.92,2-2.4L180,163.37l-4.13,1.2-3.32-1.91,20.67-5.48Zm-12.75,3.56,3.79,2.19,3.72-4.37-7.51,2.18" transform="translate(-94.54 -105.39)"/><path class="cls-1" d="M113.77,111.12a6.52,6.52,0,0,1,2.31,2,2.32,2.32,0,0,1,.32,2.09,3.6,3.6,0,0,1-1.72,1.81l-3.11-1.8c.69-.4,1-.83,1-1.31s-.48-.94-1.27-1.4a5.19,5.19,0,0,0-2.26-.74,3.13,3.13,0,0,0-1.89.37.88.88,0,0,0-.49,1.14,5.81,5.81,0,0,0,1.26,1.8c1.24,1.33,1.88,2.46,1.91,3.39a2.8,2.8,0,0,1-1.72,2.4,7.6,7.6,0,0,1-4.55.92,12.19,12.19,0,0,1-5.11-1.66,7.34,7.34,0,0,1-2.54-2.21,2.55,2.55,0,0,1-.46-2.27,3.7,3.7,0,0,1,1.81-1.92l3.13,1.8c-1.66,1-1.49,2,.51,3.18a5.48,5.48,0,0,0,2.19.74,3.13,3.13,0,0,0,1.87-.37c.59-.34.83-.72.73-1.14a5.61,5.61,0,0,0-1.26-1.88,11.52,11.52,0,0,1-1.54-2.08q-1.2-2.28,1.14-3.65a7,7,0,0,1,2.88-.86,10.45,10.45,0,0,1,3.47.27A12.89,12.89,0,0,1,113.77,111.12Z" transform="translate(-94.54 -105.39)"/><polygon class="cls-1" points="41.91 19.07 39.41 20.52 34.77 17.85 22.25 25.13 19.14 23.33 31.66 16.05 27.09 13.41 29.59 11.95 41.91 19.07"/><polygon class="cls-1" points="57.64 28.15 55.14 29.61 48.13 25.56 44.55 27.65 50.53 31.1 48.11 32.51 42.13 29.05 38.1 31.39 45.12 35.45 42.64 36.9 32.5 31.04 47.52 22.31 57.64 28.15"/><polygon class="cls-1" points="66.44 33.23 53.9 40.52 60.52 44.34 58.04 45.79 48.3 40.16 63.33 31.43 66.44 33.23"/><polygon class="cls-1" points="81.8 42.1 69.26 49.38 75.88 53.21 73.39 54.65 63.66 49.03 78.68 40.3 81.8 42.1"/><path class="cls-1" d="M196,158.84l-9.36,12-3.31-1.92,2-2.4-5.47-3.16-4.13,1.2-3.32-1.91,20.67-5.48Zm-12.75,3.56,3.79,2.19,3.72-4.37-7.51,2.18" transform="translate(-94.54 -105.39)"/><path class="cls-1" d="M113.67,111.12a6.52,6.52,0,0,1,2.31,2,2.32,2.32,0,0,1,.32,2.09,3.6,3.6,0,0,1-1.72,1.81l-3.11-1.8c.69-.4,1-.83,1-1.31s-.48-.94-1.27-1.4a5.19,5.19,0,0,0-2.26-.74,3.13,3.13,0,0,0-1.89.37.88.88,0,0,0-.49,1.14,5.81,5.81,0,0,0,1.26,1.8c1.24,1.33,1.88,2.46,1.91,3.39a2.8,2.8,0,0,1-1.72,2.4,7.6,7.6,0,0,1-4.55.92,12.19,12.19,0,0,1-5.11-1.66,7.34,7.34,0,0,1-2.54-2.21,2.55,2.55,0,0,1-.46-2.27,3.7,3.7,0,0,1,1.81-1.92l3.13,1.8c-1.66,1-1.49,2,.51,3.18a5.48,5.48,0,0,0,2.19.74,3.13,3.13,0,0,0,1.87-.37c.59-.34.83-.72.73-1.14a5.61,5.61,0,0,0-1.26-1.88,11.52,11.52,0,0,1-1.54-2.08q-1.2-2.28,1.14-3.65a7,7,0,0,1,2.88-.86,10.45,10.45,0,0,1,3.47.27A12.89,12.89,0,0,1,113.67,111.12Z" transform="translate(-94.54 -105.39)"/><polygon class="cls-1" points="41.81 19.07 39.31 20.52 34.67 17.85 22.15 25.13 19.04 23.33 31.56 16.05 26.98 13.41 29.49 11.95 41.81 19.07"/><polygon class="cls-1" points="57.54 28.15 55.04 29.61 48.03 25.56 44.45 27.65 50.43 31.1 48.01 32.51 42.03 29.05 38 31.39 45.02 35.45 42.54 36.9 32.4 31.04 47.42 22.31 57.54 28.15"/><polygon class="cls-1" points="66.34 33.23 53.8 40.52 60.42 44.34 57.94 45.79 48.2 40.16 63.23 31.43 66.34 33.23"/><polygon class="cls-1" points="81.7 42.1 69.16 49.38 75.78 53.21 73.29 54.65 63.55 49.03 78.58 40.3 81.7 42.1"/><path class="cls-1" d="M195.91,158.84l-9.36,12-3.31-1.92,2-2.4-5.47-3.16-4.13,1.2-3.32-1.91L193,157.18Zm-12.75,3.56,3.79,2.19,3.72-4.37-7.51,2.18" transform="translate(-94.54 -105.39)"/><path class="cls-1" d="M113.57,111.12a6.52,6.52,0,0,1,2.31,2,2.32,2.32,0,0,1,.32,2.09,3.6,3.6,0,0,1-1.72,1.81l-3.11-1.8c.69-.4,1-.83.95-1.31s-.48-.94-1.27-1.4a5.19,5.19,0,0,0-2.26-.74,3.13,3.13,0,0,0-1.89.37.88.88,0,0,0-.49,1.14,5.81,5.81,0,0,0,1.26,1.8c1.24,1.33,1.88,2.46,1.91,3.39a2.8,2.8,0,0,1-1.72,2.4,7.6,7.6,0,0,1-4.55.92,12.19,12.19,0,0,1-5.11-1.66,7.34,7.34,0,0,1-2.54-2.21,2.55,2.55,0,0,1-.46-2.27A3.7,3.7,0,0,1,97,113.74l3.13,1.8c-1.66,1-1.49,2,.51,3.18a5.48,5.48,0,0,0,2.19.74,3.13,3.13,0,0,0,1.87-.37c.59-.34.83-.72.73-1.14a5.61,5.61,0,0,0-1.26-1.88,11.52,11.52,0,0,1-1.54-2.08q-1.2-2.28,1.14-3.65a7,7,0,0,1,2.88-.86,10.45,10.45,0,0,1,3.47.27A12.89,12.89,0,0,1,113.57,111.12Z" transform="translate(-94.54 -105.39)"/><polygon class="cls-1" points="41.71 19.07 39.21 20.52 34.57 17.85 22.05 25.13 18.93 23.33 31.46 16.05 26.89 13.41 29.39 11.95 41.71 19.07"/><polygon class="cls-1" points="57.44 28.15 54.94 29.61 47.94 25.56 44.35 27.65 50.33 31.1 47.91 32.51 41.93 29.05 37.9 31.39 44.92 35.45 42.44 36.9 32.3 31.04 47.33 22.31 57.44 28.15"/><polygon class="cls-1" points="66.24 33.23 53.7 40.52 60.32 44.34 57.84 45.79 48.1 40.16 63.13 31.43 66.24 33.23"/><polygon class="cls-1" points="81.6 42.1 69.06 49.38 75.68 53.21 73.19 54.65 63.45 49.03 78.48 40.3 81.6 42.1"/><path class="cls-1" d="M195.81,158.84l-9.36,12-3.31-1.92,2-2.4-5.47-3.16-4.13,1.2-3.32-1.91,20.67-5.48Zm-12.75,3.56,3.79,2.19,3.72-4.37-7.51,2.18" transform="translate(-94.54 -105.39)"/><path class="cls-1" d="M113.47,111.12a6.52,6.52,0,0,1,2.31,2,2.32,2.32,0,0,1,.32,2.09,3.6,3.6,0,0,1-1.72,1.81l-3.11-1.8c.69-.4,1-.83,1-1.31s-.48-.94-1.27-1.4a5.19,5.19,0,0,0-2.26-.74,3.13,3.13,0,0,0-1.89.37.88.88,0,0,0-.49,1.14,5.81,5.81,0,0,0,1.26,1.8c1.24,1.33,1.88,2.46,1.91,3.39a2.8,2.8,0,0,1-1.72,2.4,7.6,7.6,0,0,1-4.55.92,12.19,12.19,0,0,1-5.11-1.66,7.34,7.34,0,0,1-2.54-2.21,2.55,2.55,0,0,1-.46-2.27,3.7,3.7,0,0,1,1.81-1.92l3.13,1.8c-1.66,1-1.49,2,.51,3.18a5.48,5.48,0,0,0,2.19.74,3.13,3.13,0,0,0,1.87-.37c.59-.34.83-.72.73-1.14a5.61,5.61,0,0,0-1.26-1.88,11.52,11.52,0,0,1-1.54-2.08q-1.2-2.28,1.14-3.65a7,7,0,0,1,2.88-.86,10.45,10.45,0,0,1,3.47.27A12.89,12.89,0,0,1,113.47,111.12Z" transform="translate(-94.54 -105.39)"/><polygon class="cls-1" points="41.61 19.07 39.11 20.52 34.47 17.85 21.95 25.13 18.84 23.33 31.36 16.05 26.79 13.41 29.29 11.95 41.61 19.07"/><polygon class="cls-1" points="57.34 28.15 54.84 29.61 47.84 25.56 44.25 27.65 50.23 31.1 47.81 32.51 41.83 29.05 37.8 31.39 44.82 35.45 42.34 36.9 32.2 31.04 47.23 22.31 57.34 28.15"/><polygon class="cls-1" points="66.14 33.23 53.6 40.52 60.22 44.34 57.74 45.79 48 40.16 63.03 31.43 66.14 33.23"/><polygon class="cls-1" points="81.5 42.1 68.96 49.38 75.58 53.21 73.09 54.65 63.35 49.03 78.38 40.3 81.5 42.1"/><path class="cls-1" d="M195.71,158.84l-9.36,12L183,168.93l2-2.4-5.47-3.16-4.13,1.2-3.32-1.91,20.67-5.48ZM183,162.4l3.79,2.19,3.72-4.37L183,162.4" transform="translate(-94.54 -105.39)"/><path class="cls-1" d="M113.37,111.12a6.52,6.52,0,0,1,2.31,2,2.32,2.32,0,0,1,.32,2.09,3.6,3.6,0,0,1-1.72,1.81l-3.11-1.8c.69-.4,1-.83,1-1.31s-.48-.94-1.27-1.4a5.19,5.19,0,0,0-2.26-.74,3.13,3.13,0,0,0-1.89.37.88.88,0,0,0-.49,1.14,5.81,5.81,0,0,0,1.26,1.8c1.24,1.33,1.88,2.46,1.91,3.39a2.8,2.8,0,0,1-1.72,2.4,7.6,7.6,0,0,1-4.55.92A12.19,12.19,0,0,1,98,120.14a7.34,7.34,0,0,1-2.54-2.21,2.55,2.55,0,0,1-.46-2.27,3.7,3.7,0,0,1,1.81-1.92l3.13,1.8c-1.66,1-1.49,2,.51,3.18a5.48,5.48,0,0,0,2.19.74,3.13,3.13,0,0,0,1.87-.37c.59-.34.83-.72.73-1.14a5.61,5.61,0,0,0-1.26-1.88,11.52,11.52,0,0,1-1.54-2.08q-1.2-2.28,1.14-3.65a7,7,0,0,1,2.88-.86,10.45,10.45,0,0,1,3.47.27A12.89,12.89,0,0,1,113.37,111.12Z" transform="translate(-94.54 -105.39)"/><polygon class="cls-1" points="41.51 19.07 39.01 20.52 34.37 17.85 21.85 25.13 18.73 23.33 31.26 16.05 26.68 13.41 29.19 11.95 41.51 19.07"/><polygon class="cls-1" points="57.24 28.15 54.74 29.61 47.73 25.56 44.15 27.65 50.13 31.1 47.71 32.51 41.73 29.05 37.7 31.39 44.72 35.45 42.24 36.9 32.1 31.04 47.13 22.31 57.24 28.15"/><polygon class="cls-1" points="66.04 33.23 53.5 40.52 60.12 44.34 57.64 45.79 47.9 40.16 62.93 31.43 66.04 33.23"/><polygon class="cls-1" points="81.4 42.1 68.86 49.38 75.48 53.21 72.99 54.65 63.26 49.03 78.28 40.3 81.4 42.1"/><path class="cls-1" d="M195.61,158.84l-9.36,12-3.31-1.92,2-2.4-5.47-3.16-4.13,1.2-3.32-1.91,20.67-5.48Zm-12.75,3.56,3.79,2.19,3.72-4.37-7.51,2.18" transform="translate(-94.54 -105.39)"/><path class="cls-1" d="M113.27,111.12a6.52,6.52,0,0,1,2.31,2,2.32,2.32,0,0,1,.32,2.09,3.6,3.6,0,0,1-1.72,1.81l-3.11-1.8c.69-.4,1-.83,1-1.31s-.48-.94-1.27-1.4a5.19,5.19,0,0,0-2.26-.74,3.13,3.13,0,0,0-1.89.37.88.88,0,0,0-.49,1.14,5.81,5.81,0,0,0,1.26,1.8c1.24,1.33,1.88,2.46,1.91,3.39a2.8,2.8,0,0,1-1.72,2.4,7.6,7.6,0,0,1-4.55.92,12.19,12.19,0,0,1-5.11-1.66,7.34,7.34,0,0,1-2.54-2.21,2.55,2.55,0,0,1-.46-2.27,3.7,3.7,0,0,1,1.81-1.92l3.13,1.8c-1.66,1-1.49,2,.51,3.18a5.48,5.48,0,0,0,2.19.74,3.13,3.13,0,0,0,1.87-.37c.59-.34.83-.72.73-1.14a5.61,5.61,0,0,0-1.26-1.88,11.52,11.52,0,0,1-1.54-2.08q-1.2-2.28,1.14-3.65a7,7,0,0,1,2.88-.86,10.45,10.45,0,0,1,3.47.27A12.89,12.89,0,0,1,113.27,111.12Z" transform="translate(-94.54 -105.39)"/><polygon class="cls-1" points="41.41 19.07 38.91 20.52 34.27 17.85 21.75 25.13 18.64 23.33 31.16 16.05 26.59 13.41 29.09 11.95 41.41 19.07"/><polygon class="cls-1" points="57.14 28.15 54.64 29.61 47.63 25.56 44.05 27.65 50.03 31.1 47.61 32.51 41.63 29.05 37.6 31.39 44.62 35.45 42.14 36.9 32 31.04 47.02 22.31 57.14 28.15"/><polygon class="cls-1" points="65.94 33.23 53.4 40.52 60.02 44.34 57.54 45.79 47.8 40.16 62.83 31.43 65.94 33.23"/><polygon class="cls-1" points="81.3 42.1 68.76 49.38 75.38 53.21 72.89 54.65 63.16 49.03 78.18 40.3 81.3 42.1"/><path class="cls-1" d="M195.51,158.84l-9.36,12-3.31-1.92,2-2.4-5.47-3.16-4.13,1.2L172,162.66l20.67-5.48Zm-12.75,3.56,3.79,2.19,3.72-4.37-7.51,2.18" transform="translate(-94.54 -105.39)"/><path class="cls-1" d="M113.17,111.12a6.52,6.52,0,0,1,2.31,2,2.32,2.32,0,0,1,.32,2.09,3.6,3.6,0,0,1-1.72,1.81l-3.11-1.8c.69-.4,1-.83,1-1.31s-.48-.94-1.27-1.4a5.19,5.19,0,0,0-2.26-.74,3.13,3.13,0,0,0-1.89.37.88.88,0,0,0-.49,1.14,5.81,5.81,0,0,0,1.26,1.8c1.24,1.33,1.88,2.46,1.91,3.39a2.8,2.8,0,0,1-1.72,2.4,7.6,7.6,0,0,1-4.55.92,12.19,12.19,0,0,1-5.11-1.66,7.34,7.34,0,0,1-2.54-2.21,2.55,2.55,0,0,1-.46-2.27,3.7,3.7,0,0,1,1.81-1.92l3.13,1.8c-1.66,1-1.49,2,.51,3.18a5.48,5.48,0,0,0,2.19.74,3.13,3.13,0,0,0,1.87-.37c.59-.34.83-.72.73-1.14a5.61,5.61,0,0,0-1.26-1.88,11.52,11.52,0,0,1-1.54-2.08q-1.2-2.28,1.14-3.65a7,7,0,0,1,2.88-.86,10.45,10.45,0,0,1,3.47.27A12.89,12.89,0,0,1,113.17,111.12Z" transform="translate(-94.54 -105.39)"/><polygon class="cls-1" points="41.31 19.07 38.81 20.52 34.17 17.85 21.65 25.13 18.54 23.33 31.06 16.05 26.48 13.41 28.99 11.95 41.31 19.07"/><polygon class="cls-1" points="57.04 28.15 54.54 29.61 47.53 25.56 43.95 27.65 49.93 31.1 47.51 32.51 41.53 29.05 37.5 31.39 44.52 35.45 42.04 36.9 31.9 31.04 46.92 22.31 57.04 28.15"/><polygon class="cls-1" points="65.84 33.23 53.3 40.52 59.92 44.34 57.44 45.79 47.7 40.16 62.73 31.43 65.84 33.23"/><polygon class="cls-1" points="81.2 42.1 68.66 49.38 75.28 53.21 72.79 54.65 63.05 49.03 78.08 40.3 81.2 42.1"/><path class="cls-1" d="M195.41,158.84l-9.36,12-3.31-1.92,2-2.4-5.47-3.16-4.13,1.2-3.32-1.91,20.67-5.48Zm-12.75,3.56,3.79,2.19,3.72-4.37-7.51,2.18" transform="translate(-94.54 -105.39)"/><path class="cls-1" d="M113.07,111.12a6.52,6.52,0,0,1,2.31,2,2.32,2.32,0,0,1,.32,2.09A3.6,3.6,0,0,1,114,117l-3.11-1.8c.69-.4,1-.83.95-1.31s-.48-.94-1.27-1.4a5.19,5.19,0,0,0-2.26-.74,3.13,3.13,0,0,0-1.89.37.88.88,0,0,0-.49,1.14,5.81,5.81,0,0,0,1.26,1.8c1.24,1.33,1.88,2.46,1.91,3.39a2.8,2.8,0,0,1-1.72,2.4,7.6,7.6,0,0,1-4.55.92,12.19,12.19,0,0,1-5.11-1.66,7.34,7.34,0,0,1-2.54-2.21,2.55,2.55,0,0,1-.46-2.27,3.7,3.7,0,0,1,1.81-1.92l3.13,1.8c-1.66,1-1.49,2,.51,3.18a5.48,5.48,0,0,0,2.19.74,3.13,3.13,0,0,0,1.87-.37c.59-.34.83-.72.73-1.14a5.61,5.61,0,0,0-1.26-1.88,11.52,11.52,0,0,1-1.54-2.08q-1.2-2.28,1.14-3.65a7,7,0,0,1,2.88-.86,10.45,10.45,0,0,1,3.47.27A12.89,12.89,0,0,1,113.07,111.12Z" transform="translate(-94.54 -105.39)"/><polygon class="cls-1" points="41.21 19.07 38.71 20.52 34.07 17.85 21.55 25.13 18.43 23.33 30.96 16.05 26.39 13.41 28.89 11.95 41.21 19.07"/><polygon class="cls-1" points="56.94 28.15 54.44 29.61 47.44 25.56 43.85 27.65 49.83 31.1 47.41 32.51 41.43 29.05 37.4 31.39 44.42 35.45 41.94 36.9 31.8 31.04 46.83 22.31 56.94 28.15"/><polygon class="cls-1" points="65.74 33.23 53.2 40.52 59.82 44.34 57.34 45.79 47.6 40.16 62.63 31.43 65.74 33.23"/><polygon class="cls-1" points="81.1 42.1 68.56 49.38 75.18 53.21 72.69 54.65 62.95 49.03 77.98 40.3 81.1 42.1"/><path class="cls-1" d="M195.31,158.84l-9.36,12-3.31-1.92,2-2.4-5.47-3.16-4.13,1.2-3.32-1.91,20.67-5.48Zm-12.75,3.56,3.79,2.19,3.72-4.37-7.51,2.18" transform="translate(-94.54 -105.39)"/><path class="cls-2" d="M111.83,110l0,4.08V114c-.06-.47-.48-.93-1.27-1.39a5.35,5.35,0,0,0-2.26-.75,3.27,3.27,0,0,0-1.89.37.92.92,0,0,0-.55.8V109a.93.93,0,0,1,.55-.8,3.13,3.13,0,0,1,1.89-.37,5.19,5.19,0,0,1,2.26.74c.79.46,1.22.92,1.27,1.4C111.82,110,111.83,110,111.83,110Z" transform="translate(-94.54 -105.39)"/><path class="cls-2" d="M98.5,117v-4.08c0-.48.38-.93,1.13-1.37v4.08C98.88,116.06,98.5,116.51,98.5,117Z" transform="translate(-94.54 -105.39)"/><polygon class="cls-2" points="19.44 7.64 19.43 11.72 16.32 9.92 16.33 5.85 19.44 7.64"/><path class="cls-3" d="M115.82,110.51v4.07a2,2,0,0,1-.13.72,3.53,3.53,0,0,1-1.71,1.81V113a3.6,3.6,0,0,0,1.72-1.81A2.16,2.16,0,0,0,115.82,110.51Z" transform="translate(-94.54 -105.39)"/><path class="cls-2" d="M105,114.13v4.07a1.1,1.1,0,0,0,0-.18,5.59,5.59,0,0,0-1.26-1.87,11.39,11.39,0,0,1-1.54-2.08,3.17,3.17,0,0,1-.41-1.45l0-4.08a3,3,0,0,0,.4,1.45,11.52,11.52,0,0,0,1.54,2.08,5.61,5.61,0,0,1,1.26,1.88A1.1,1.1,0,0,1,105,114.13Z" transform="translate(-94.54 -105.39)"/><path class="cls-2" d="M109.08,114.54v4.07a2.86,2.86,0,0,1-1.72,2.35,7.69,7.69,0,0,1-4.55.92,12,12,0,0,1-5.11-1.67,7.36,7.36,0,0,1-2.55-2.2,2.94,2.94,0,0,1-.55-1.62v-4.07a2.85,2.85,0,0,0,.56,1.61,7.34,7.34,0,0,0,2.54,2.21,12.19,12.19,0,0,0,5.11,1.66,7.6,7.6,0,0,0,4.55-.92A2.81,2.81,0,0,0,109.08,114.54Z" transform="translate(-94.54 -105.39)"/><polygon class="cls-2" points="30.96 12.05 30.94 16.13 26.37 13.49 26.39 9.41 30.96 12.05"/><polygon class="cls-2" points="38.71 16.52 38.7 20.6 34.06 17.92 34.07 13.85 38.71 16.52"/><polygon class="cls-3" points="41.21 15.07 41.2 19.14 38.7 20.6 38.71 16.52 41.21 15.07"/><polygon class="cls-2" points="21.55 21.13 21.54 25.2 18.42 23.4 18.43 19.33 21.55 21.13"/><polygon class="cls-3" points="34.07 13.85 34.06 17.92 21.54 25.2 21.55 21.13 34.07 13.85"/><polygon class="cls-3" points="47.44 21.56 47.42 25.64 43.84 27.72 43.85 23.65 47.44 21.56"/><polygon class="cls-2" points="54.44 25.61 54.43 29.68 47.42 25.64 47.44 21.56 54.44 25.61"/><polygon class="cls-3" points="56.94 24.15 56.93 28.23 54.43 29.68 54.44 25.61 56.94 24.15"/><polygon class="cls-3" points="41.43 25.05 41.42 29.13 37.39 31.47 37.4 27.39 41.43 25.05"/><polygon class="cls-2" points="47.41 28.51 47.4 32.58 41.42 29.13 41.43 25.05 47.41 28.51"/><polygon class="cls-3" points="49.83 27.1 49.82 31.18 47.4 32.58 47.41 28.51 49.83 27.1"/><polygon class="cls-3" points="44.42 31.45 44.41 35.53 41.92 36.97 41.94 32.9 44.42 31.45"/><polygon class="cls-2" points="41.94 32.9 41.92 36.97 31.79 31.12 31.8 27.04 41.94 32.9"/><polygon class="cls-3" points="65.74 29.23 65.73 33.31 53.19 40.59 53.2 36.52 65.74 29.23"/><polygon class="cls-3" points="59.82 40.34 59.81 44.42 57.33 45.86 57.34 41.79 59.82 40.34"/><polygon class="cls-2" points="57.34 41.79 57.33 45.86 47.59 40.24 47.6 36.16 57.34 41.79"/><polygon class="cls-3" points="81.1 38.1 81.09 42.17 68.55 49.46 68.56 45.38 81.1 38.1"/><polygon class="cls-3" points="75.18 49.21 75.17 53.28 72.68 54.73 72.69 50.65 75.18 49.21"/><polygon class="cls-2" points="72.69 50.65 72.68 54.73 62.94 49.11 62.95 45.03 72.69 50.65"/><polygon class="cls-3" points="95.53 50.83 95.52 54.91 88.01 57.09 88.02 53.01 95.53 50.83"/><polygon class="cls-2" points="84.67 53.98 84.66 58.06 80.53 59.26 80.55 55.19 84.67 53.98"/><polygon class="cls-2" points="80.55 55.19 80.53 59.26 77.21 57.34 77.22 53.27 80.55 55.19"/><polygon class="cls-3" points="90.15 57.14 90.13 61.22 84.66 58.06 84.67 53.98 90.15 57.14"/><polygon class="cls-2" points="91.41 61.46 91.4 65.53 88.09 63.62 88.1 59.55 91.41 61.46"/><polygon class="cls-3" points="100.78 49.46 100.76 53.53 91.4 65.53 91.41 61.46 100.78 49.46"/><path class="cls-4" d="M113.07,107.12a6.52,6.52,0,0,1,2.31,2,2.32,2.32,0,0,1,.32,2.09A3.6,3.6,0,0,1,114,113l-3.11-1.8c.69-.4,1-.83.95-1.31s-.48-.94-1.27-1.4a5.19,5.19,0,0,0-2.26-.74,3.13,3.13,0,0,0-1.89.37.88.88,0,0,0-.49,1.14,5.81,5.81,0,0,0,1.26,1.8c1.24,1.33,1.88,2.46,1.91,3.39a2.8,2.8,0,0,1-1.72,2.4,7.6,7.6,0,0,1-4.55.92,12.19,12.19,0,0,1-5.11-1.66,7.34,7.34,0,0,1-2.54-2.21,2.55,2.55,0,0,1-.46-2.27,3.7,3.7,0,0,1,1.81-1.92l3.13,1.8c-1.66,1-1.49,2,.51,3.18a5.48,5.48,0,0,0,2.19.74,3.13,3.13,0,0,0,1.87-.37c.59-.34.83-.72.73-1.14a5.61,5.61,0,0,0-1.26-1.88,11.52,11.52,0,0,1-1.54-2.08q-1.2-2.28,1.14-3.65a7,7,0,0,1,2.88-.86,10.45,10.45,0,0,1,3.47.27A12.89,12.89,0,0,1,113.07,107.12Z" transform="translate(-94.54 -105.39)"/><polygon class="cls-4" points="41.21 15.07 38.71 16.52 34.07 13.85 21.55 21.13 18.43 19.33 30.96 12.05 26.39 9.41 28.89 7.95 41.21 15.07"/><polygon class="cls-4" points="56.94 24.15 54.44 25.61 47.44 21.56 43.85 23.65 49.83 27.1 47.41 28.51 41.43 25.05 37.4 27.39 44.42 31.45 41.94 32.9 31.8 27.04 46.83 18.31 56.94 24.15"/><polygon class="cls-4" points="65.74 29.23 53.2 36.52 59.82 40.34 57.34 41.79 47.6 36.16 62.63 27.43 65.74 29.23"/><polygon class="cls-4" points="81.1 38.1 68.56 45.38 75.18 49.21 72.69 50.65 62.95 45.03 77.98 36.3 81.1 38.1"/><path class="cls-4" d="M195.31,154.84l-9.36,12-3.31-1.92,2-2.4-5.47-3.16-4.13,1.2-3.32-1.91,20.67-5.48Zm-12.75,3.56,3.79,2.19,3.72-4.37-7.51,2.18" transform="translate(-94.54 -105.39)"/></g></svg>